<?xml version="1.0" encoding="utf-8"?>
<!-- Generator: Adobe Illustrator 22.1.0, SVG Export Plug-In . SVG Version: 6.00 Build 0)  -->
<svg version="1.1" id="Capa_1" xmlns="http://www.w3.org/2000/svg" xmlns:xlink="http://www.w3.org/1999/xlink" x="0px" y="0px"
	 viewBox="0 0 202.6 204.9" style="enable-background:new 0 0 202.6 204.9;" xml:space="preserve">
<g id="tuerca">
	<path style="fill:#2D2D2D;" d="M183.8,75.7c6.5,1.3,11.8,4.4,14.8,10.7c2.5,5.4,2.5,25-0.1,30.3c-3.2,6.7-8.8,9.6-15.8,10.6
		c-4.9,0.8-7,2.9-8,7.7c-0.3,1.5,0.8,2.3,1.5,3.2c3.1,4.1,5.9,8.3,6,13.7c0.1,5.1-1.7,9.6-5.2,13.2c-3.3,3.4-6.6,6.7-9.9,9.9
		c-6.6,6.6-15.5,7.5-23.4,2.5c-0.7-0.4-1.5-0.8-2-1.4c-2.9-3.1-6-3.1-9.6-1.2c-1.9,1-2.9,1.9-3,4.1c-0.1,1.7-0.5,3.5-0.9,5.2
		c-1.9,8.4-8.3,14-16.9,14.5c-5.5,0.3-11,0.3-16.5,0c-8.5-0.4-15-6.1-16.9-14.4c-0.4-1.6-0.9-3.3-0.9-4.9c0-2.8-1.6-3.7-3.9-4.8
		c-3.3-1.7-5.5-1-8.3,1.1c-9.7,7.4-18.3,6.7-27-1.8c-2.9-2.8-5.8-5.7-8.6-8.6c-6.3-6.5-7.2-15.5-2.3-23.1c0.5-0.7,0.8-1.5,1.4-2
		c2.9-2.8,3.4-5.7,1.3-9.4c-1.1-1.9-2-3.1-4.2-3.3c-1.5-0.1-3.1-0.5-4.6-0.7c-8.7-1.6-15-8.8-15.1-17.7c-0.1-5-0.1-10,0-15
		c0.1-9.2,6.1-16.3,15.1-18c0.8-0.2,1.6-0.4,2.4-0.5c3.7-0.1,5.8-1.6,7.2-5.3c1.2-3.1,0.2-4.8-1.5-6.9c-4.6-5.8-6.7-12.1-3.9-19.4
		c0.9-2.5,2.3-4.6,4.2-6.5c3.3-3.3,6.6-6.6,9.9-9.9c6.4-6.3,15.6-7.2,23.1-2.3c0.7,0.5,1.5,0.9,2,1.4c2.8,2.9,5.8,3.3,9.4,1.3
		c1.8-1,3-1.8,3.2-4c0.1-1.9,0.6-3.7,1-5.5C79.7,10.1,86.3,4.4,95,4.1c5.2-0.2,10.4-0.2,15.6,0c8.8,0.3,15.5,6.1,17.4,14.7
		c0.1,0.5,0.3,1,0.5,1.5c0.2,1.7,0.5,3.5,0.7,5.2c0.1,1,0.6,1.4,1.4,1.8c3.9,2,7.8,3.5,11.3-0.8c0.4-0.5,1-0.7,1.5-1.1
		c7.7-5,16.8-4.2,23.4,2.3c3.3,3.3,6.6,6.6,9.9,9.9c2,2,3.4,4.4,4.4,7.1c2.7,7.5,0,13.8-4.6,19.6c-1.9,2.4-1.2,8.4,1.1,10.3
		c0.3,0.2,0.7,0.3,1.1,0.4C180.4,75.3,182.1,75.5,183.8,75.7z M166.8,82.4c-0.9-5.1-3.4-9.6-5.8-14.1c-0.8-1.5-0.8-2.6,0.2-3.9
		c2.5-3.2,4.8-6.5,7.1-9.8c2.1-3,1.9-5.8-0.6-8.4c-3.2-3.3-6.4-6.5-9.7-9.7c-2.7-2.6-5.4-2.8-8.4-0.6c-3.2,2.3-6.5,4.5-9.6,7
		c-1.5,1.2-2.7,1.3-4.4,0.3c-4.5-2.4-8.9-4.9-14.1-5.7c-2.4-0.6-3.3-2.2-3.6-4.6c-0.4-3.8-1.1-7.6-1.9-11.4
		c-0.8-3.6-2.8-5.1-6.4-5.2c-4.5-0.1-8.9-0.1-13.4,0c-3.9,0-5.9,1.6-6.7,5.6c-0.8,4.1-1.5,8.2-2.1,12.3c-0.2,1.5-0.8,2.4-2.4,2.8
		c-5.5,1.3-10.6,3.7-15.5,6.5c-1.3,0.7-2.2,0.6-3.3-0.2c-3.3-2.5-6.7-4.9-10.1-7.3c-3.1-2.2-5.7-2-8.4,0.6c-3.2,3.1-6.4,6.3-9.5,9.5
		c-2.9,3-3,5.5-0.6,8.9c2.3,3.3,4.7,6.6,7.1,9.9c0.9,1.2,0.9,2.1,0.2,3.3C42.4,73,40,78,38.7,83.5c-0.4,1.6-1.3,2.1-2.8,2.3
		c-4.1,0.6-8.2,1.3-12.3,2.1c-3.9,0.8-5.5,2.8-5.6,6.7c-0.1,4.4-0.1,8.7,0,13.1c0,4,1.6,5.9,5.5,6.7c4.2,0.9,8.4,1.5,12.6,2.1
		c1.4,0.2,2.2,0.8,2.5,2.2c1.3,5.6,3.6,10.8,6.5,15.8c0.8,1.4,0.4,2.2-0.4,3.3c-2.5,3.3-4.9,6.7-7.3,10.1c-2.2,3.1-2,5.7,0.7,8.4
		c3,3.1,6,6.1,9,9.1c3.4,3.3,5.8,3.5,9.6,0.8c3.1-2.2,6.3-4.4,9.4-6.7c1.2-0.9,2.2-1.1,3.6-0.3c4.9,2.7,10,5.1,15.5,6.4
		c1.4,0.3,2,1.2,2.1,2.6c0.5,3.9,1.2,7.8,1.9,11.7c0.9,4.8,2.8,6.3,7.7,6.4c3.8,0,7.7,0,11.5,0c5.1,0,7.1-1.7,8-6.8
		c0.6-3.6,1.3-7.2,1.7-10.8c0.2-1.8,0.9-2.7,2.7-3.2c5.3-1.3,10.2-3.4,14.9-6.2c1.6-1,2.7-0.7,4.2,0.4c3,2.3,6,4.4,9.1,6.6
		c3.7,2.7,6.3,2.5,9.6-0.8c3-2.9,5.9-5.8,8.8-8.8c2.9-3,3.1-5.8,0.6-9.2c-2.3-3.2-4.6-6.4-7-9.6c-1-1.2-1-2.2-0.2-3.6
		c2.8-4.9,5.1-10,6.4-15.5c0.3-1.4,1-2,2.5-2.2c4.3-0.6,8.6-1.4,12.9-2.3c3.5-0.7,5.1-2.8,5.2-6.4c0.1-4.5,0.1-8.9,0-13.4
		c-0.1-3.9-1.6-5.9-5.6-6.7c-3.6-0.7-7.1-1.4-10.8-1.8C169.1,85.9,167.4,85,166.8,82.4z"/>
	<path style="fill:#E9505B;" d="M183.8,75.7c-1.7-0.2-3.5-0.5-5.2-0.7c-0.4-0.1-0.9-0.2-1.1-0.4c-2.3-1.9-2.9-8-1.1-10.3
		c4.6-5.8,7.3-12.1,4.6-19.6c-1-2.7-2.3-5.1-4.4-7.1c-3.3-3.3-6.6-6.6-9.9-9.9c-6.5-6.4-15.7-7.3-23.4-2.3c-0.5,0.3-1.1,0.6-1.5,1.1
		c-3.5,4.3-7.4,2.8-11.3,0.8c-0.8-0.4-1.3-0.8-1.4-1.8c-0.2-1.7-0.4-3.5-0.7-5.2c6.3-7.7,14-13.1,23.8-15.5
		c21.6-5.1,44.7,10.8,47.5,32.9c1.9,15-3.1,27.3-14.8,36.9C184.5,75,184.2,75.4,183.8,75.7z"/>
	<path style="fill:#E9505B;" d="M101.8,137.8c3.9,0.2,7-2.3,7.2-5.8c0.3-3.5-2.4-6.2-6.5-6.5c-13.8-0.9-23-10.1-23.9-23.9
		c-0.3-4.1-3-6.7-6.5-6.5c-3.5,0.3-6,3.4-5.8,7.2C67.5,122,81.8,136.6,101.8,137.8z"/>
	<path style="fill:#E9505B;" d="M166.8,82.4c-26.2,4.4-49.4-18.2-45.2-44.9c5.1,0.8,9.6,3.2,14.1,5.7c1.7,0.9,2.9,0.9,4.4-0.3
		c3.1-2.4,6.3-4.7,9.6-7c3.1-2.2,5.7-2,8.4,0.6c3.3,3.2,6.5,6.4,9.7,9.7c2.5,2.6,2.7,5.5,0.6,8.4c-2.3,3.3-4.7,6.6-7.1,9.8
		c-1,1.4-1,2.4-0.2,3.9C163.4,72.9,165.9,77.3,166.8,82.4z"/>
	<path style="fill:#E9505B;" d="M101.8,137.8c-20-1.2-34.2-15.8-35.4-35.4c-0.2-3.9,2.3-7,5.8-7.2c3.5-0.3,6.2,2.4,6.5,6.5
		c0.9,13.9,10.1,23,23.9,23.9c4,0.3,6.7,3,6.5,6.5C108.7,135.5,105.6,138,101.8,137.8z"/>
</g>
<g id="bombilla">
	<g>
		<g id="bombilla_1_">
			<g>
				<path style="fill:#2D2D2D;stroke:#2D2D2D;stroke-width:2;stroke-miterlimit:10;" d="M101.4,41.2L101.4,41.2
					c-27.8,0-50.5,22.6-50.6,50.4c0.1,5.4,1,10.7,2.7,15.8l0.1,0.2c2.4,5.3,5.1,10.5,8.2,15.4c6.5,11.4,17.5,30.5,17.5,36.9
					c0,3,2.5,5.5,5.5,5.5h33.1c3.1,0,5.5-2.5,5.5-5.5c0-6.4,11-25.5,17.5-36.9c3.1-4.9,5.9-10.1,8.2-15.5l0.1-0.2
					c1.6-5.1,2.5-10.5,2.6-15.9C151.8,63.8,129.1,41.2,101.4,41.2z M89.5,154.5c-2.4-9-9.6-22.1-18.2-36.9c-2.7-4.4-5.2-9-7.4-13.6
					c-1.2-4-1.9-8.1-2.1-12.3c0-18.5,12.8-34.1,30-38.3c3-0.8,6.2-1.2,9.5-1.2c21.7,0,39.4,17.7,39.4,39.4c-0.1,4.2-0.8,8.3-2,12.3
					c-2.2,4.7-4.7,9.3-7.4,13.7c-8.5,14.8-15.8,27.9-18.1,36.9H89.5z"/>
			</g>
			<g>
				<g>
					<path style="fill:#2D2D2D;" d="M45.1,94.3c0,3.3-2.7,6.1-6.1,6.1H14.8c-3.3,0-6.1-2.7-6.1-6.1c0-3.3,2.7-6.1,6.1-6.1H39
						C42.4,88.2,45.1,90.9,45.1,94.3z"/>
				</g>
				<g>
					<path style="fill:#2D2D2D;" d="M141,54.5c-1.1-1.2-1.7-2.7-1.7-4.3c0-1.6,0.7-3.1,1.9-4.2l17.2-17.2c1.2-1.1,2.7-1.7,4.3-1.7
						c1.6,0,3.1,0.7,4.2,1.8c1.1,1.2,1.7,2.7,1.7,4.3c0,1.6-0.7,3.1-1.8,4.2l-17.1,17.1c0,0-0.1,0.1-0.1,0.1
						c-1.1,1.1-2.6,1.7-4.2,1.7h-0.1C143.6,56.3,142.1,55.6,141,54.5z"/>
					<path style="fill:#2D2D2D;" d="M120.7,194.4c0.1,1.5-0.3,2.9-1.2,4.1c-0.9,1.1-2.3,1.9-3.7,2L88,203.2c-0.1,0-0.3,0-0.5,0
						c-2.8,0-5.2-2.1-5.5-5c-0.3-3,1.9-5.8,5-6.1l27.7-2.8c1.5-0.2,2.9,0.3,4.1,1.2C119.8,191.6,120.5,192.9,120.7,194.4z"/>
					<path style="fill:#2D2D2D;" d="M166.8,151.1c2.3,2.4,2.3,6.1,0,8.4c-1.2,1.2-2.8,1.8-4.4,1.8c-1.5,0-3-0.6-4.2-1.7l-17.2-17.2
						c-2.4-2.4-2.4-6.2,0-8.6c2.4-2.4,6.2-2.4,8.5,0L166.8,151.1z"/>
					<path style="fill:#2D2D2D;" d="M120.7,176.7c0.1,1.5-0.3,2.9-1.2,4.1c-0.9,1.2-2.3,1.9-3.7,2L88,185.6c-0.1,0-0.3,0-0.5,0
						c-2.8,0-5.2-2.1-5.5-5c-0.3-3,1.9-5.8,5-6.1l27.7-2.8c1.5-0.2,2.9,0.3,4.1,1.2C119.8,173.9,120.5,175.3,120.7,176.7z"/>
					<path style="fill:#2D2D2D;" d="M193.9,94.3c0,3.3-2.7,6.1-6.1,6.1h-24.2c-3.3,0-6.1-2.7-6.1-6.1c0-3.3,2.7-6.1,6.1-6.1h24.2
						C191.2,88.2,193.9,90.9,193.9,94.3z"/>
					<path style="fill:#2D2D2D;" d="M61.4,134c1.2,1.1,1.8,2.6,1.8,4.2c0,1.6-0.6,3.1-1.7,4.3l-17.2,17.2c-1.1,1.1-2.7,1.8-4.3,1.8
						c-1.6,0-3.1-0.6-4.3-1.8c-2.4-2.4-2.4-6.2,0-8.6L53,134C55.4,131.7,59.1,131.7,61.4,134z"/>
					<path style="fill:#2D2D2D;" d="M95.3,32V7.8c0-3.3,2.7-6.1,6.1-6.1s6.1,2.7,6.1,6.1V32c0,3.3-2.7,6.1-6.1,6.1
						S95.3,35.3,95.3,32z"/>
					<path style="fill:#2D2D2D;" d="M61.6,45.9c1.1,1.1,1.8,2.7,1.8,4.3c0,3.3-2.7,6.1-6.1,6.1c-1.6,0-3.1-0.7-4.3-1.8L35.8,37.2
						c-2.3-2.4-2.2-6.2,0.1-8.5c2.4-2.3,6.2-2.2,8.6,0.1L61.6,45.9z"/>
				</g>
			</g>
		</g>
		<g>
			<ellipse style="fill:#E9505B;" cx="116.4" cy="86.4" rx="9.6" ry="10"/>
		</g>
	</g>
	<g>
		<path style="fill:#E9505B;stroke:#E9505B;stroke-width:3;stroke-miterlimit:10;" d="M96.5,144.8c-1.5,0-2.7-1.1-3-2.6
			c-1.9-12.2-7.3-20-12.6-27.4c-4.4-6.3-8.6-12.2-10-19.9l0-0.2C68.9,74.2,81.1,67.3,81.6,67c1.5-0.8,3.3-0.3,4.1,1.2
			c0.8,1.4,0.3,3.3-1.2,4.1c-0.4,0.2-9.2,5.6-7.7,21.8c1.2,6.4,4.8,11.5,9,17.4c5.4,7.7,11.6,16.4,13.7,30c0.2,1.6-0.9,3.2-2.5,3.4
			C96.8,144.8,96.6,144.8,96.5,144.8z"/>
	</g>
</g>
<g id="lupa">
	<g>
		<path style="fill:#E9505B;" d="M68.5,9C34.6,9,7.1,36.6,7.1,70.6s27.5,61.6,61.4,61.6c33.9,0,61.4-27.6,61.4-61.6S102.4,9,68.5,9z
			 M68.9,115.5c-25.2,0-45.5-20.4-45.5-45.5c0-25.1,20.4-45.5,45.5-45.5s45.5,20.4,45.5,45.5C114.5,95.1,94.1,115.5,68.9,115.5z"/>
	</g>
	<g>
		<g>
			<path style="fill:#2D2D2D;" d="M192.2,164.1l-54.9-50.8c-1.6-1.5-4.2-1.5-5.7,0.1l-6.7,6.7l-6.4-6.5
				c23.9-27.1,21.2-68.4-5.9-92.3S44,0.1,20.2,27.2S-1.1,95.6,26,119.5c24.7,21.8,61.7,21.8,86.4,0l6.4,6.4l-6.7,6.7
				c-1.6,1.6-1.6,4.1-0.1,5.7l50.8,54.9c3.8,4.1,9.2,6.5,14.8,6.6h0.4c11.4,0,20.7-9.3,20.7-20.7C198.8,173.5,196.4,168,192.2,164.1
				L192.2,164.1z M28.8,110.8c-22.3-22.3-22.3-58.5,0-80.9s58.5-22.3,80.9,0c22.3,22.3,22.3,58.5,0,80.9c0,0,0,0,0,0
				c-22.1,22.3-58,22.6-80.4,0.5C29.1,111.1,28.9,111,28.8,110.8L28.8,110.8z M186.9,188c-2.4,2.4-5.6,3.7-9,3.6
				c-3.4-0.1-6.6-1.5-8.9-4l-48.1-52l13.7-13.7l52,48.1c5,4.7,5.3,12.5,0.7,17.5C187.1,187.8,187,187.9,186.9,188L186.9,188z"/>
			<path style="fill:#2D2D2D;" d="M178.1,200.8h-0.4c-5.8-0.1-11.5-2.6-15.4-6.9l-50.8-54.9c-1.8-2-1.8-5,0.1-6.9l6.1-6.1l-5.3-5.3
				c-25,21.5-62.2,21.3-87-0.5C12.2,108.4,4.3,92.2,3.1,74.6s4.7-34.7,16.4-48C43.7-0.8,85.6-3.5,113,20.7c27.2,24,30,65.5,6.4,92.9
				l5.3,5.3l6.1-6.1c1.9-1.9,4.9-2,6.9-0.1l52.5,48.6l0,0l2.4,2.2c4.4,4.1,6.9,9.8,6.9,15.8c0,5.7-2.2,11.2-6.3,15.2
				C189.3,198.5,183.9,200.8,178.1,200.8z M112.5,118.3l7.6,7.6l-7.3,7.3c-1.3,1.3-1.3,3.3-0.1,4.6l50.8,54.9
				c3.6,4,8.8,6.3,14.2,6.3h0.4c10.9,0,19.8-8.9,19.8-19.8c0-5.3-2.2-10.5-6-14.2l-0.4-0.3l-54.9-50.8c-1.3-1.2-3.3-1.2-4.6,0.1
				l-7.3,7.3l-7.6-7.6l0.5-0.6c23.5-26.7,20.9-67.6-5.8-91.1C85.2-1.6,44.3,1,20.8,27.7C9.4,40.7,3.7,57.3,4.8,74.5
				s8.8,33,21.8,44.4c24.3,21.4,61,21.4,85.3,0L112.5,118.3z M178.1,192.5c-0.1,0-0.1,0-0.2,0c-3.6-0.1-7-1.6-9.5-4.2l-48.7-52.6
				l14.8-14.8l0.6,0.6l52,48.1c5.4,5,5.7,13.4,0.7,18.7c-0.1,0.1-0.2,0.2-0.4,0.4l-0.6-0.6l0.6,0.6
				C185,191.1,181.6,192.5,178.1,192.5z M122,135.7l47.6,51.4c2.1,2.3,5.1,3.7,8.3,3.7c3.1,0.1,6.2-1.2,8.4-3.4l0,0
				c0.1-0.1,0.2-0.2,0.3-0.3c4.3-4.7,4-12-0.6-16.3l-51.4-47.6L122,135.7z M69.2,128.5c-14.6,0-29.3-5.5-40.5-16.6l-1.9-2h0
				C5.6,87.2,6,51.5,28.2,29.3c11-11,25.5-17,41-17c15.5,0,30.1,6,41,17c22.6,22.6,22.6,59.4,0,82.1C99,122.8,84.1,128.5,69.2,128.5
				z M30.3,111.1c22,21.3,57.2,21,78.8-0.9c22-22,22-57.7,0-79.7c-22-22-57.7-22-79.7,0c-22,22-22,57.7,0,79.7L30.3,111.1z"/>
		</g>
		<g>
			<path style="fill:#2D2D2D;" d="M69.2,22.8c-26.2,0-47.5,21.3-47.5,47.5c0,26.2,21.3,47.5,47.5,47.5c26.2,0,47.5-21.3,47.5-47.5
				C116.7,44.1,95.4,22.9,69.2,22.8L69.2,22.8z M69.2,109.6C47.5,109.6,30,92,30,70.3c0-21.7,17.6-39.2,39.2-39.2
				c21.7,0,39.2,17.6,39.2,39.2C108.4,92,90.9,109.6,69.2,109.6L69.2,109.6z"/>
		</g>
		<g>
			<path style="fill:#E9505B;" d="M70.8,42.1c-17,0-30.8,13.8-30.8,30.8c0,2.3,1.9,4.1,4.1,4.1c2.3,0,4.1-1.9,4.1-4.1
				c0-12.4,10.1-22.5,22.5-22.5c2.3,0,4.1-1.9,4.1-4.1C74.9,44,73.1,42.1,70.8,42.1z"/>
			<path style="fill:#E9505B;" d="M44.1,77.5c-2.5,0-4.6-2-4.6-4.6c0-17.2,14-31.2,31.2-31.2l0,0c2.5,0,4.6,2,4.6,4.6
				c0,2.5-2,4.6-4.6,4.6c-12.2,0-22.1,9.9-22.1,22.1C48.7,75.5,46.6,77.5,44.1,77.5z M70.8,42.6c-16.7,0-30.4,13.7-30.4,30.4
				c0,2,1.7,3.7,3.7,3.7s3.7-1.7,3.7-3.7c0-12.6,10.3-22.9,23-23c2,0,3.7-1.7,3.7-3.7S72.8,42.6,70.8,42.6L70.8,42.6z"/>
		</g>
	</g>
</g>
</svg>
