<?xml version="1.0" encoding="utf-8"?>
<!-- Generator: Adobe Illustrator 22.1.0, SVG Export Plug-In . SVG Version: 6.00 Build 0)  -->
<svg version="1.1" xmlns="http://www.w3.org/2000/svg" xmlns:xlink="http://www.w3.org/1999/xlink" x="0px" y="0px"
	 viewBox="0 0 512 511" style="enable-background:new 0 0 512 511;" xml:space="preserve">
<g id="londres">
	<g>
		<g>
			<polygon style="fill:#737EE5;" points="375.1,92.4 409.4,72.3 431,80.5 434.8,92.4 424.7,134 413,122.6 410.9,108 			"/>
		</g>
		<g>
			<g>
				<path style="fill:#FAFAFF;" d="M406.6,229.9c5.8,5.8,5.8,15.1,0,20.8l-37.5,37.5l-5.8-35.8l22.5-22.5
					C391.5,224.2,400.8,224.2,406.6,229.9z"/>
			</g>
			<g>
				<path style="fill:#FAFAFF;" d="M281.6,104.9c5.8,5.8,5.8,15.1,0,20.8l-22.5,22.5l-35.8-5.8l37.5-37.5
					C266.5,99.2,275.8,99.2,281.6,104.9z"/>
			</g>
			<g>
				<g>
					<path style="fill:#737EE5;" d="M157.1,310.3l0.7,0.4c-9.3,15.4-17.7,32.1-24.4,46.4l-0.7-0.3l-50.8-35.2
						c-8.4-5.8-9.5-17.9-2.3-25.1c4.3-4.2,10.5-5.8,16.3-4.1L157.1,310.3z"/>
				</g>
				<g>
					<path style="fill:#737EE5;" d="M219.2,415.4c1.7,5.8,0.1,12-4.1,16.3c-7.3,7.3-19.3,6.2-25.1-2.3l-35.2-50.8l-0.3-0.7
						c14-6.5,30.1-14.6,45.2-23.6l1.6,0L219.2,415.4z"/>
				</g>
			</g>
			<g>
				<path d="M245.1,256c-2.9,2.9-2.9,7.5,0,10.4c2.9,2.9,7.5,2.9,10.4,0c2.9-2.9,2.9-7.5,0-10.4C252.7,253.1,248,253.1,245.1,256z"
					/>
			</g>
			<g>
				<path d="M362.2,88.5c-12.6,9.8-16.1,14.8-60.9,59.2l-26.9-4.4l12.3-12.3c8.6-8.6,8.6-22.6,0-31.2c-8.6-8.6-22.6-8.6-31.3,0
					l-34.8,34.8L98.9,114.7c-7.9-1.3-15.9,1.3-21.6,7c-10.8,10.8-9.4,28.8,3,37.7l121.4,87.9L179,270c-7.8,7.8-16,18.5-24.4,31.9
					L98,285.2c-8.4-2.5-17.4-0.2-23.5,6c-10.5,10.5-8.9,28,3.3,36.4l46.4,32.1c-8.1,17.8-13,30.7-13.2,31.3c-1,2.7-0.4,5.8,1.7,7.8
					c2.1,2.1,5.1,2.7,7.8,1.7c0.6-0.2,13.5-5.1,31.3-13.2l32.1,46.4c8.5,12.2,25.9,13.8,36.4,3.3c6.2-6.2,8.5-15.2,6-23.5
					l-16.6-56.6c13.4-8.4,24.1-16.6,31.9-24.4l22.7-22.7l87.9,121.4c9,12.4,26.9,13.8,37.7,3c5.6-5.6,8.2-13.7,7-21.6l-19.8-121.8
					l34.8-34.8c8.6-8.6,8.6-22.6,0-31.3c-8.6-8.6-22.6-8.6-31.2,0l-12.3,12.3l-4.4-26.9c44.4-44.9,49.4-48.2,59.2-60.9c0,0,0,0,0,0
					c22.7-29.4,28-59.2,13.2-74C421.4,60.5,391.7,65.8,362.2,88.5z M265.9,110.1c2.9-2.9,7.5-2.9,10.4,0s2.9,7.5,0,10.4l-19.8,19.8
					l-17.9-2.9L265.9,110.1z M89,147.4c-5-3.6-5.6-10.9-1.2-15.3c2.3-2.3,5.6-3.4,8.8-2.8l192,31.3l-76.2,76.2L89,147.4z
					 M84.8,301.7c2.4-2.4,5.8-3.2,9-2.3l52.9,15.6c-5.4,9.5-10.9,20-16.3,31.3l-44.3-30.7C81.4,312.3,80.8,305.7,84.8,301.7z
					 M209.8,426.7c-4,4-10.6,3.4-13.9-1.3l-30.7-44.3c11.3-5.5,21.8-10.9,31.3-16.3l15.6,52.9C213.1,420.9,212.2,424.3,209.8,426.7z
					 M390.9,235.1c2.9-2.9,7.5-2.9,10.4,0s2.9,7.5,0,10.4L374,272.9l-2.9-17.9L390.9,235.1z M382.2,415c0.5,3.2-0.5,6.5-2.8,8.8
					c-4.4,4.4-11.7,3.8-15.3-1.2l-89.3-123.3L351,223L382.2,415z M231.1,322.1c-8.1,8.1-20,16.9-35.3,26
					c-19.9,11.9-43.4,23.2-64.6,32.2c9.3-21.8,20.7-45.7,32.9-65.8c8.9-14.7,17.4-26.2,25.3-34.1c179.9-179.5,169.3-170.2,180.2-179
					c12.1-0.8,22.8,2.8,30.2,10.2c7.4,7.4,11,18.1,10.2,30.2C401.3,152.9,410.4,142.3,231.1,322.1z M422.6,122.6
					c-2.4-8.1-6.5-15.4-12.4-21.3c-5.9-5.9-13.1-10.1-21.3-12.4c10.7-5.4,28.6-11.5,36.9-3.2C432.4,92.2,430.7,106.6,422.6,122.6z"
					/>
			</g>
			<g>
				<path d="M286.8,214.3l-20.8,20.8c-2.9,2.9-2.9,7.5,0,10.4c2.9,2.9,7.5,2.9,10.4,0l20.8-20.8c2.9-2.9,2.9-7.5,0-10.4
					C294.3,211.4,289.7,211.4,286.8,214.3z"/>
			</g>
			<g>
				<path d="M328.4,172.6l-20.8,20.8c-2.9,2.9-2.9,7.5,0,10.4c2.9,2.9,7.5,2.9,10.4,0l20.8-20.8c2.9-2.9,2.9-7.5,0-10.4
					C336,169.8,331.3,169.8,328.4,172.6z"/>
			</g>
		</g>
	</g>
</g>
<g id="costa">
	<g>
		<g>
			<polygon style="fill:#737EE5;" points="146.6,144 186.4,135.4 297.5,139.7 312,161.6 309.6,167.9 153,167.9 			"/>
		</g>
		<g>
			<polygon style="fill:#737EE5;" points="119.5,249.7 139.1,222.4 295.3,222.4 289.7,246.9 263.5,253.4 			"/>
		</g>
		<g>
			<g>
				<g>
					<g>
						<path d="M464.4,300.8c-19.5-0.5-38.6,4.8-55.1,15.1c-3.1,1.7-6.2,3.4-9.5,5l68.3-82.2c3.6-4.2,4.4-10.2,2.1-15.2
							s-7.4-8.3-13-8.3h-61.8l-75.1-54.6l-3.6-7.3c-7.2-14.5-22-23.7-38.3-23.6h-73.4l-7.1-14.3h38.4c3.9,0,7.1-3.2,7.1-7.1
							c0-3.9-3.2-7.1-7.1-7.1h-78.4c-3.9,0-7.1,3.2-7.1,7.1s3.2,7.1,7.1,7.1H182l7.1,14.3h-31.2c-11.8,0-21.4,9.6-21.4,21.4
							s9.6,21.4,21.4,21.4h9.9l-21.4,42.8h-6.3c-4.5,0-8.7,2.1-11.4,5.7l-17.1,22.8H99.3c-2.4,0-4.7,1.2-6,3.3l-34.7,54
							c-2.5-0.1-4.9-0.3-7.7-0.3c-3.9,0-7.1,3.2-7.1,7.1c0,3.9,3.2,7.1,7.1,7.1c17-0.4,33.8,4.2,48.2,13.4
							c16.5,10.3,35.7,15.6,55.1,15.1c15.3,0.4,30.4-2.8,44.1-9.4l0.1-0.1c3.8-1.8,7.4-3.8,10.9-5.7c14.4-9.1,31.2-13.8,48.2-13.4
							c17.1-0.4,33.8,4.2,48.3,13.4c16.5,10.3,35.7,15.6,55.2,15.1c19.5,0.5,38.6-4.8,55.1-15.1c14.4-9.1,31.2-13.8,48.2-13.4
							c3.9,0,7.1-3.2,7.1-7.1C471.5,304,468.4,300.8,464.4,300.8z M312.4,172.5l19.6,14.3h-81.4c-3.9,0-7.1-3.2-7.1-7.1v-7.1
							L312.4,172.5L312.4,172.5z M157.9,158.3c-3.9,0-7.1-3.2-7.1-7.1s3.2-7.1,7.1-7.1h120.6c10.2,0,19.6,5.4,24.6,14.3L157.9,158.3
							L157.9,158.3z M183.7,172.5h45.5v7.1c0,11.8,9.6,21.4,21.4,21.4h101.1l19.6,14.3H162.3L183.7,172.5z M140.1,229.5h146.1v7.1
							c0,3.9-3.2,7.1-7.1,7.1H129.4L140.1,229.5z M361,329.3c-17.1,0.4-33.9-4.2-48.3-13.4c-16.5-10.3-35.7-15.6-55.1-15.1
							c-19.5-0.5-38.6,4.8-55.1,15.1c-14.4,9.1-31.2,13.8-48.2,13.4c-17,0.4-33.8-4.2-48.2-13.4c-9.9-6-20.6-10.3-31.8-12.8
							l28.9-45.1h175.9c11.8,0,21.4-9.6,21.4-21.4v-7.1h21.4v21.4c0,3.9,3.2,7.1,7.1,7.1c3.9,0,7.1-3.2,7.1-7.1v-21.4h14.3v21.4
							c0,3.9,3.2,7.1,7.1,7.1c3.9,0,7.1-3.2,7.1-7.1v-21.4h14.3v21.4c0,3.9,3.2,7.1,7.1,7.1s7.1-3.2,7.1-7.1v-21.3h64.1l-82.1,98.8
							C370.4,329,365.7,329.4,361,329.3z"/>
						<path d="M157,344.1c-0.9,0-1.8,0-2.7,0c-19.6,0.5-38.8-4.8-55.4-15.2c-14.4-9.1-30.9-13.7-48-13.3c-4.2,0-7.6-3.4-7.6-7.6
							s3.4-7.6,7.6-7.6c2.7,0,5.1,0.1,7.4,0.3l34.5-53.8c1.4-2.2,3.8-3.5,6.4-3.5c0,0,0,0,0,0h12l17-22.6c2.8-3.7,7.2-5.9,11.8-5.9
							h6l20.9-41.8h-9c-12.1,0-21.9-9.8-21.9-21.9s9.8-21.9,21.9-21.9h30.4l-6.6-13.3h-23.8c-4.2,0-7.6-3.4-7.6-7.6s3.4-7.6,7.6-7.6
							h78.4c4.2,0,7.6,3.4,7.6,7.6s-3.4,7.6-7.6,7.6h-37.6l6.6,13.3h73.1c0,0,0.1,0,0.1,0c16.5,0,31.2,9.2,38.6,23.9l3.6,7.2
							l74.9,54.5h61.7c0,0,0,0,0,0c5.7,0,11,3.4,13.4,8.6c2.4,5.2,1.6,11.4-2.2,15.8l-66.8,80.3c2.4-1.2,4.8-2.5,7.2-3.9l0.1-0.1
							c16.6-10.4,35.8-15.7,55.4-15.2c4.2,0,7.6,3.4,7.6,7.6c0,4.2-3.4,7.6-7.6,7.6c-17-0.4-33.6,4.2-48,13.3
							c-16.6,10.4-35.8,15.7-55.4,15.2c-19.6,0.4-38.8-4.8-55.4-15.2c-14.4-9.1-31-13.7-48-13.3c-17-0.4-33.6,4.2-48,13.3
							c-3.5,1.9-7.1,3.9-10.9,5.7l-0.1,0C185.7,340.9,171.4,344.1,157,344.1z M154.3,343.1c15.1,0.4,30.3-2.8,43.9-9.3l0.1,0
							c3.8-1.8,7.4-3.8,10.8-5.7c14.5-9.2,31.3-13.8,48.5-13.4c17.2-0.4,34,4.2,48.5,13.5c16.5,10.3,35.5,15.5,54.9,15.1
							c19.4,0.5,38.4-4.8,54.9-15.1c14.5-9.2,31.3-13.9,48.5-13.5c3.6,0,6.6-3,6.6-6.6s-3-6.6-6.6-6.6h0
							c-19.4-0.5-38.4,4.8-54.9,15.1l-0.1,0.1c-3,1.7-6.2,3.4-9.4,4.9l-2.1,1l69.8-83.9c3.5-4.1,4.3-9.8,2-14.7
							c-2.2-4.9-7.1-8-12.5-8c0,0,0,0,0,0h-62l-0.1-0.1L319.9,161l-3.7-7.4c-7.2-14.4-21.6-23.4-37.7-23.4c0,0-0.1,0-0.1,0h-73.7
							l-7.6-15.3h39.2c3.7,0,6.6-3,6.6-6.6s-3-6.6-6.6-6.6h-78.4c-3.7,0-6.6,3-6.6,6.6s3,6.6,6.6,6.6h24.4l7.6,15.3h-32
							c-11.5,0-20.9,9.4-20.9,20.9s9.4,20.9,20.9,20.9h10.7l-21.9,43.8h-6.6c-4.3,0-8.4,2.1-11,5.5l-17.3,23H99.3c0,0,0,0,0,0
							c-2.3,0-4.4,1.1-5.6,3l-34.8,54.3l-0.3,0c-2.4-0.1-4.9-0.3-7.6-0.3c-3.7,0-6.6,3-6.6,6.6s3,6.6,6.6,6.6
							c17.2-0.4,34,4.2,48.5,13.5C115.9,338.4,134.9,343.6,154.3,343.1z M358.9,329.9c-16.5,0-32.5-4.6-46.4-13.5
							c-16.5-10.3-35.5-15.5-54.9-15.1c-19.4-0.5-38.4,4.8-54.9,15.1c-14.5,9.2-31.3,13.9-48.5,13.5c-17.2,0.4-34-4.2-48.5-13.5
							c-9.8-5.9-20.5-10.2-31.7-12.8l-0.7-0.2l29.4-45.9h176.2c11.5,0,20.9-9.4,20.9-20.9V229h22.4v21.9c0,3.7,3,6.6,6.6,6.6
							c3.7,0,6.6-3,6.6-6.6V229h15.3v21.9c0,3.7,3,6.6,6.6,6.6c3.7,0,6.6-3,6.6-6.6V229h15.3v21.9c0,3.7,3,6.6,6.6,6.6
							s6.6-3,6.6-6.6v-21.8h65.7l-83,99.8l-0.2,0c-4.7,0.6-9.4,0.9-14.1,0.9C360.3,329.9,359.6,329.9,358.9,329.9z M260,300.3
							c18.8,0,37.1,5.2,53,15.2c14.4,9.1,31,13.7,48,13.3h0c0,0,0.1,0,0.1,0c4.5,0,9.1-0.3,13.6-0.9l81.3-97.9h-62.5v20.8
							c0,4.2-3.4,7.6-7.6,7.6s-7.6-3.4-7.6-7.6V230h-13.3v20.9c0,4.2-3.4,7.6-7.6,7.6c-4.2,0-7.6-3.4-7.6-7.6V230h-13.3v20.9
							c0,4.2-3.4,7.6-7.6,7.6c-4.2,0-7.6-3.4-7.6-7.6V230H301v6.6c0,12.1-9.8,21.9-21.9,21.9H103.4l-28.4,44.3
							c11,2.6,21.6,6.9,31.3,12.7c14.4,9.1,30.9,13.7,48,13.3c17,0.4,33.6-4.2,47.9-13.3c16.6-10.4,35.8-15.7,55.4-15.2
							C258.4,300.3,259.2,300.3,260,300.3z M279.1,244.3H128.4l11.4-15.3h146.9v7.6C286.7,240.9,283.3,244.3,279.1,244.3z
							 M130.4,243.3h148.7c3.7,0,6.6-3,6.6-6.6V230H140.3L130.4,243.3z M372.7,215.8H161.5l21.9-43.8h46.3v7.6
							c0,11.5,9.4,20.9,20.9,20.9h101.2l0.1,0.1L372.7,215.8z M163.1,214.8h206.6l-18.2-13.3H250.6c-12.1,0-21.9-9.8-21.9-21.9V173
							H184L163.1,214.8z M333.5,187.3h-83c-4.2,0-7.6-3.4-7.6-7.6V172h69.6l0.1,0.1L333.5,187.3z M243.9,173v6.6
							c0,3.7,3,6.6,6.6,6.6h79.9L312.2,173L243.9,173z M303.9,158.8l-146,0c-4.2,0-7.6-3.4-7.6-7.6s3.4-7.6,7.6-7.6h120.6
							c0,0,0,0,0,0c10.3,0,19.9,5.6,25,14.5L303.9,158.8z M157.9,144.5c-3.7,0-6.6,3-6.6,6.6c0,3.7,3,6.6,6.6,6.6l144.3,0
							c-5-8.2-14-13.3-23.7-13.3c0,0,0,0,0,0H157.9z"/>
					</g>
					<g>
						<path d="M464.4,362.6c-19.5-0.5-38.6,4.8-55.1,15.1c-14.4,9.1-31.2,13.8-48.2,13.4c-17.1,0.4-33.8-4.2-48.3-13.4
							c-16.5-10.3-35.7-15.6-55.2-15.1c-19.5-0.5-38.6,4.8-55.1,15.1c-14.4,9.1-31.2,13.8-48.2,13.4c-17,0.4-33.8-4.2-48.2-13.4
							c-16.5-10.3-35.7-15.6-55.1-15.1c-3.9,0-7.1,3.2-7.1,7.1s3.2,7.1,7.1,7.1c17-0.4,33.8,4.2,48.2,13.4
							c16.5,10.3,35.7,15.6,55.1,15.1c19.5,0.5,38.6-4.8,55.1-15.1c14.4-9.1,31.2-13.8,48.2-13.4c17.1-0.4,33.8,4.2,48.3,13.4
							c16.5,10.3,35.7,15.6,55.2,15.1c19.5,0.5,38.6-4.8,55.1-15.1c14.4-9.1,31.2-13.8,48.2-13.4c3.9,0,7.1-3.2,7.1-7.1
							S468.4,362.6,464.4,362.6z"/>
						<path d="M358.6,405.9c-18.8,0-37.1-5.2-53-15.2c-14.4-9.1-30.9-13.7-48-13.3c-17-0.4-33.6,4.2-47.9,13.3
							c-16.6,10.4-35.8,15.7-55.4,15.2c-19.6,0.5-38.8-4.8-55.4-15.2c-14.4-9.1-31-13.7-48-13.3c-4.2,0-7.6-3.4-7.6-7.6
							s3.4-7.6,7.6-7.6c19.6-0.5,38.8,4.8,55.4,15.2c14.4,9.1,30.9,13.7,48,13.3c17,0.4,33.6-4.2,47.9-13.3
							c16.6-10.4,35.8-15.7,55.4-15.2c19.6-0.5,38.8,4.8,55.4,15.2c14.4,9.1,31,13.7,48,13.3c17,0.4,33.6-4.2,48-13.3
							c16.6-10.4,35.8-15.7,55.4-15.2c4.2,0,7.6,3.4,7.6,7.6c0,4.2-3.4,7.6-7.6,7.6c-17-0.4-33.6,4.2-48,13.3
							c-16.6,10.4-35.8,15.7-55.4,15.2C360.2,405.9,359.4,405.9,358.6,405.9z M259.8,376.3c16.4,0,32.5,4.6,46.4,13.5
							c16.5,10.3,35.4,15.5,54.9,15.1c19.5,0.5,38.4-4.8,54.9-15.1c14.5-9.2,31.3-13.9,48.5-13.5c3.6,0,6.6-3,6.6-6.6
							s-3-6.6-6.6-6.6h0c-19.4-0.5-38.4,4.8-54.9,15.1c-14.5,9.2-31.3,13.9-48.5,13.5c-17.2,0.4-34-4.2-48.5-13.5
							c-16.5-10.3-35.4-15.5-54.9-15.1c-19.4-0.5-38.4,4.8-54.9,15.1c-14.5,9.2-31.3,13.8-48.5,13.5c-17.2,0.4-34-4.2-48.5-13.5
							c-16.5-10.3-35.4-15.5-54.8-15.1c-3.7,0-6.6,3-6.6,6.6s3,6.6,6.6,6.6c17.2-0.4,34,4.2,48.5,13.5
							c16.5,10.3,35.4,15.5,54.9,15.1c19.4,0.5,38.4-4.8,54.9-15.1c14.5-9.2,31.3-13.9,48.5-13.4
							C258.3,376.3,259.1,376.3,259.8,376.3z"/>
					</g>
				</g>
			</g>
			<g>
			</g>
			<g>
			</g>
			<g>
			</g>
			<g>
			</g>
			<g>
			</g>
			<g>
			</g>
			<g>
			</g>
			<g>
			</g>
			<g>
			</g>
			<g>
			</g>
			<g>
			</g>
			<g>
			</g>
			<g>
			</g>
			<g>
			</g>
			<g>
			</g>
		</g>
	</g>
</g>
<g id="potes">
	<g>
		<g>
			<polygon style="fill:#737EE5;" points="138.6,283.3 197.7,196.7 231.5,228.8 267.7,299 242.8,299 202.1,281.3 			"/>
		</g>
		<g>
			<polygon style="fill:#737EE5;" points="306,300.4 351.5,245.9 405.9,330.3 382.3,320.8 351.5,305.7 316.9,307.8 			"/>
		</g>
		<g>
			<g>
				<path d="M479.8,417.8l-41-58.1c-2.1-3-6.2-3.7-9.3-1.7c-3,2-3.8,6.1-1.7,9l41,58.1c0.8,1.1,0.4,2.1,0.1,2.6
					c-0.3,0.5-0.9,1.3-2.3,1.3H365.9c0.7-3.9-0.2-7.9-2.6-11.2l-30.6-43.4c-2.1-3-6.2-3.7-9.3-1.7c-3,2-3.8,6.1-1.7,9l30.6,43.4
					c0.8,1.1,0.4,2.1,0.1,2.6c-0.3,0.5-0.9,1.3-2.3,1.3H42.5c-1.3,0-2-0.8-2.3-1.3c-0.3-0.5-0.6-1.5,0.2-2.6l60.9-86.4
					c2.1-3,1.3-7-1.7-9c-3-2-7.2-1.3-9.3,1.7l-60.9,86.4c-3.3,4.7-3.7,10.9-0.9,15.9s8.2,8.2,14.1,8.2h424.1
					c5.9,0,11.3-3.2,14.1-8.2C483.5,428.7,483.1,422.6,479.8,417.8z"/>
				<path d="M466.6,443.5H42.5c-6.5,0-12.4-3.5-15.4-9c-3-5.6-2.6-12.3,1-17.5L89,330.6c2.5-3.6,7.6-4.5,11.3-2.1
					c1.8,1.2,3,3,3.4,5.2c0.4,2.1-0.1,4.2-1.3,6L41.6,426c-0.2,0.2-0.3,0.5-0.1,1c0.3,0.5,0.7,0.5,0.9,0.5h307.7
					c0.3,0,0.7-0.1,0.9-0.5c0.3-0.5,0-0.8-0.1-1l-30.6-43.4c-1.2-1.8-1.7-3.9-1.3-6c0.4-2.1,1.6-4,3.4-5.2c3.7-2.5,8.8-1.5,11.3,2.1
					l30.6,43.4c2.2,3.1,3.3,6.8,3,10.6h99c0.3,0,0.7-0.1,0.9-0.5c0.3-0.5,0-0.8-0.1-1l-41-58.1c-1.2-1.8-1.7-3.9-1.3-6
					c0.4-2.1,1.6-4,3.4-5.2c3.7-2.5,8.8-1.5,11.3,2.1l41,58.1c3.7,5.2,4.1,11.9,1,17.5C479,440,473.1,443.5,466.6,443.5z
					 M95.7,330.1c-1.7,0-3.3,0.8-4.3,2.2l-60.9,86.4c-3,4.3-3.3,9.8-0.9,14.4c2.5,4.6,7.4,7.5,12.8,7.5h424.1
					c5.4,0,10.3-2.9,12.8-7.5c2.5-4.6,2.2-10.1-0.9-14.4h0l-41-58.1c-1.6-2.3-4.9-2.9-7.2-1.3c-1.1,0.8-1.9,1.9-2.2,3.2
					c-0.2,1.3,0,2.6,0.8,3.7l41,58.1c0.9,1.3,1,2.8,0.2,4.1c-0.7,1.3-2,2.1-3.6,2.1H364.2l0.3-1.8c0.6-3.5-0.2-7.1-2.3-10.1
					l-30.6-43.4c-1.6-2.3-4.9-2.9-7.2-1.3c-1.1,0.8-1.9,1.9-2.2,3.2c-0.2,1.3,0,2.6,0.8,3.7l30.6,43.4c0.9,1.3,1,2.8,0.2,4.1
					c-0.7,1.3-2,2.1-3.6,2.1H42.5c-1.6,0-2.9-0.8-3.6-2.1c-0.7-1.4-0.6-2.9,0.2-4.1l60.9-86.4c0.8-1.1,1.1-2.4,0.8-3.7
					c-0.2-1.3-1-2.5-2.2-3.2C97.8,330.4,96.7,330.1,95.7,330.1z"/>
			</g>
			<g>
				<path d="M183.2,199.4l-75.4,106.9c-2.1,3-1.3,7,1.7,9c3,2,7.2,1.3,9.3-1.7l17-24.1c9.4,5.3,23.7,7.7,44.6-1.6
					c15.7-7,26.5,1,39.1,10.2c8.7,6.4,18.7,13.7,30.4,13.7c5.7,0,11.8-1.8,18.3-6.2l35.9,50.9c1.3,1.8,3.4,2.8,5.5,2.8
					c1.3,0,2.6-0.4,3.8-1.1c3-2,3.8-6.1,1.7-9l-16.9-24l12.4-17.7c7.8,7.4,20.9,13.5,42,6.8c6.8-2.2,8.9-0.2,14.7,5
					c1.8,1.6,3.7,3.4,6.1,5.2c5.6,4.3,14.9,9.9,31.8,10.2l5,7.1c1.3,1.8,3.4,2.8,5.5,2.8c1.3,0,2.6-0.4,3.8-1.1c3-2,3.8-6.1,1.7-9
					l-7-10c0,0,0-0.1-0.1-0.1l-52.6-74.6c-3-4.2-7.9-6.7-13.1-6.7c-5.3,0-10.2,2.5-13.1,6.7L304.8,293c0,0,0,0.1-0.1,0.1l-14.6,20.7
					l-80.6-114.4c-3-4.2-7.9-6.7-13.1-6.7C191.1,192.7,186.2,195.2,183.2,199.4z M346.2,257.2c0.7-0.9,1.6-1.1,2.1-1.1
					s1.5,0.1,2.1,1.1l44.8,63.6c-6.3-1.4-10.4-3.8-13.6-6.3c-1.9-1.4-3.6-3-5.2-4.5c-6.4-5.9-13.7-12.5-28-7.9
					c-13.4,4.3-23.2,2.5-30.1-5.4L346.2,257.2z M196.4,205.7c0.5,0,1.5,0.1,2.1,1.1l62.2,88.3c-11.4,7.9-19.3,2.9-33.1-7.2
					c-13.3-9.7-29.8-21.8-52.7-11.7c-12.9,5.7-23.5,6.6-31.4,2.6l50.8-72.1C194.9,205.8,195.9,205.7,196.4,205.7z"/>
				<path d="M309.6,361c-2.7,0-5.2-1.3-6.7-3.5l-35-49.7c-5.9,3.7-11.9,5.6-17.9,5.6c-12.2,0-22.3-7.4-31.3-14
					c-12.7-9.3-22.7-16.7-37.6-10c-17.5,7.8-32.5,8.5-44.7,2.2l-16.2,23c-2.5,3.6-7.6,4.5-11.3,2.1c-1.8-1.2-3-3-3.4-5.2
					c-0.4-2.1,0.1-4.2,1.3-6L182,198.6c3.2-4.6,8.6-7.4,14.4-7.4c0,0,0,0,0,0c5.7,0,11.1,2.8,14.4,7.4l79.4,112.7L334,249
					c3.3-4.6,8.6-7.4,14.4-7.4c5.7,0,11.1,2.8,14.4,7.4l52.6,74.6l-1.2,1l1.2-0.9l7.1,10c1.2,1.8,1.7,3.9,1.3,6
					c-0.4,2.1-1.6,4-3.4,5.2c-1.4,0.9-3,1.4-4.6,1.4c-2.7,0-5.2-1.3-6.7-3.5l-4.6-6.5c-16.9-0.4-26.3-6.2-31.9-10.5
					c-2.4-1.8-4.4-3.7-6.1-5.3c-5.7-5.2-7.2-6.6-13.2-4.7c-21.1,6.8-34.4,0.8-42.2-5.9L300,325.3l16.3,23.2c1.2,1.8,1.7,3.9,1.3,6
					c-0.4,2.1-1.6,4-3.4,5.2C312.9,360.5,311.3,361,309.6,361z M268.6,303.7l36.7,52.1c1,1.4,2.6,2.2,4.3,2.2c1.1,0,2.1-0.3,2.9-0.9
					c1.1-0.8,1.9-1.9,2.2-3.2c0.2-1.3,0-2.6-0.8-3.7l-17.5-24.9l14.1-19.9l1.3,1.2c7,6.6,19.7,13.1,40.5,6.4
					c7.6-2.4,10.3,0,16.1,5.4c1.7,1.6,3.7,3.4,6,5.1c5.3,4.1,14.4,9.6,30.9,9.9l0.8,0l5.4,7.7c1,1.4,2.6,2.2,4.3,2.2
					c1.1,0,2.1-0.3,2.9-0.9c1.1-0.8,1.9-1.9,2.2-3.2c0.2-1.3,0-2.6-0.8-3.7l-7-10l1.2-1l-1.2,0.9l-52.6-74.6
					c-2.7-3.8-7.1-6.1-11.9-6.1c-4.8,0-9.2,2.3-11.9,6.1l-46.3,65.7l-81.8-116.2c-2.7-3.8-7.1-6.1-11.9-6.1c0,0,0,0,0,0
					c-4.8,0-9.2,2.3-11.9,6.1v0l-75.4,106.9c-0.8,1.1-1.1,2.4-0.8,3.7c0.2,1.3,1,2.5,2.2,3.2c2.4,1.6,5.6,1,7.2-1.3l17.7-25.2
					l1.2,0.7c11.6,6.5,26.1,5.9,43.3-1.7c16.5-7.3,28.2,1.3,40.6,10.4c8.6,6.3,18.3,13.4,29.5,13.4c5.9,0,11.6-1.9,17.4-5.9
					L268.6,303.7z M398.7,323.1l-3.8-0.8c-6.9-1.5-11.2-4.3-14.2-6.6c-1.9-1.5-3.7-3.1-5.3-4.6c-6.4-5.9-13-11.9-26.5-7.6
					c-14,4.5-24.4,2.6-31.7-5.8l-0.8-0.9l28.5-40.4c0.8-1.1,2-1.7,3.3-1.7c1.4,0,2.6,0.6,3.3,1.7L398.7,323.1z M357.4,299.1
					c9.3,0,15.2,5.3,20.1,9.8c1.5,1.4,3.3,3,5.1,4.4c2.1,1.6,4.9,3.5,9,4.9l-42.4-60.2c-0.1-0.1-0.3-0.4-0.9-0.4
					c-0.6,0-0.8,0.3-0.9,0.4l0,0l-27.1,38.5c6.4,6.7,15.5,8,27.7,4.1C351.5,299.6,354.6,299.1,357.4,299.1z M249.9,300.5
					c-7.1,0-13.9-4.7-23.2-11.4c-13-9.5-29.1-21.3-51.2-11.5c-13.3,5.9-24.3,6.8-32.7,2.6l-1.6-0.8l51.8-73.5c0.8-1.1,2-1.7,3.3-1.7
					c1.4,0,2.6,0.6,3.3,1.7l63.1,89.5l-1.2,0.9C257.4,299.2,253.6,300.5,249.9,300.5z M192.1,270.9c14.8,0,26.5,8.6,36.4,15.8
					c13.2,9.6,20.2,14.2,30.1,8l-61.3-87.1c-0.2-0.3-0.5-0.4-0.9-0.4c-0.6,0-0.8,0.3-0.9,0.4l-49.8,70.6c7.4,2.9,17,1.8,28.6-3.4
					C180.7,272,186.6,270.9,192.1,270.9z"/>
			</g>
			<g>
				<path d="M285.1,177c20.2,0,36.6-16,36.6-35.6c0-19.6-16.4-35.6-36.6-35.6c-20.2,0-36.6,16-36.6,35.6
					C248.4,161.1,264.9,177,285.1,177z M285.1,118.9c12.8,0,23.3,10.1,23.3,22.6c0,12.5-10.4,22.6-23.3,22.6
					c-12.8,0-23.3-10.1-23.3-22.6C261.8,129,272.2,118.9,285.1,118.9z"/>
				<path d="M285.1,178.5c-21,0-38.1-16.6-38.1-37.1c0-20.4,17.1-37.1,38.1-37.1c21,0,38.1,16.6,38.1,37.1
					C323.2,161.9,306.1,178.5,285.1,178.5z M285.1,107.4c-19.4,0-35.1,15.3-35.1,34.1c0,18.8,15.8,34.1,35.1,34.1
					c19.4,0,35.1-15.3,35.1-34.1C320.2,122.7,304.4,107.4,285.1,107.4z M285.1,165.6c-13.7,0-24.8-10.8-24.8-24.1
					s11.1-24.1,24.8-24.1c13.7,0,24.8,10.8,24.8,24.1S298.7,165.6,285.1,165.6z M285.1,120.4c-12,0-21.8,9.5-21.8,21.1
					s9.8,21.1,21.8,21.1c12,0,21.8-9.5,21.8-21.1S297.1,120.4,285.1,120.4z"/>
			</g>
			<g>
				<path d="M285.1,86.7c3.7,0,6.7-2.9,6.7-6.5v-4.8c0-3.6-3-6.5-6.7-6.5c-3.7,0-6.7,2.9-6.7,6.5v4.8
					C278.4,83.8,281.4,86.7,285.1,86.7z"/>
				<path d="M285.1,88.2c-4.5,0-8.2-3.6-8.2-8v-4.8c0-4.4,3.7-8,8.2-8c4.5,0,8.2,3.6,8.2,8v4.8C293.2,84.7,289.6,88.2,285.1,88.2z
					 M285.1,70.5c-2.9,0-5.2,2.2-5.2,5v4.8c0,2.7,2.3,5,5.2,5c2.9,0,5.2-2.2,5.2-5v-4.8C290.2,72.7,287.9,70.5,285.1,70.5z"/>
			</g>
			<g>
				<path d="M278.4,202.7v4.8c0,3.6,3,6.5,6.7,6.5c3.7,0,6.7-2.9,6.7-6.5v-4.8c0-3.6-3-6.5-6.7-6.5
					C281.4,196.2,278.4,199.1,278.4,202.7z"/>
				<path d="M285.1,215.4c-4.5,0-8.2-3.6-8.2-8v-4.8c0-4.4,3.7-8,8.2-8c4.5,0,8.2,3.6,8.2,8v4.8
					C293.2,211.9,289.6,215.4,285.1,215.4z M285.1,197.7c-2.9,0-5.2,2.2-5.2,5v4.8c0,2.7,2.3,5,5.2,5c2.9,0,5.2-2.2,5.2-5v-4.8
					C290.2,199.9,287.9,197.7,285.1,197.7z"/>
			</g>
			<g>
				<path d="M329.6,104.7c1.7,0,3.4-0.6,4.7-1.9l3.5-3.4c2.6-2.5,2.6-6.6,0-9.2c-2.6-2.5-6.8-2.5-9.4,0l-3.5,3.4
					c-2.6,2.5-2.6,6.6,0,9.2C326.2,104,327.9,104.7,329.6,104.7z"/>
				<path d="M329.6,106.2c-2.2,0-4.2-0.8-5.8-2.3c-1.6-1.5-2.4-3.5-2.4-5.7s0.9-4.2,2.4-5.7l3.5-3.4c3.2-3.1,8.3-3.1,11.5,0
					c1.6,1.5,2.4,3.5,2.4,5.7c0,2.1-0.9,4.2-2.4,5.7l-3.5,3.4C333.9,105.3,331.8,106.2,329.6,106.2z M333.1,89.8
					c-1.3,0-2.7,0.5-3.7,1.5l-3.5,3.4c-1,0.9-1.5,2.2-1.5,3.5s0.5,2.6,1.5,3.5c1,1,2.3,1.5,3.7,1.5c1.4,0,2.7-0.5,3.7-1.5l3.5-3.4
					c1-0.9,1.5-2.2,1.5-3.5c0-1.3-0.5-2.6-1.5-3.5C335.8,90.3,334.4,89.8,333.1,89.8z"/>
			</g>
			<g>
				<path d="M235.8,180.2l-3.5,3.4c-2.6,2.5-2.6,6.6,0,9.2c1.3,1.3,3,1.9,4.7,1.9c1.7,0,3.4-0.6,4.7-1.9l3.5-3.4
					c2.6-2.5,2.6-6.6,0-9.2C242.6,177.6,238.4,177.6,235.8,180.2z"/>
				<path d="M237,196.1c-2.2,0-4.2-0.8-5.8-2.3c-1.6-1.5-2.4-3.5-2.4-5.7s0.9-4.2,2.4-5.7l3.5-3.4c3.2-3.1,8.4-3.1,11.5,0
					c1.6,1.5,2.4,3.5,2.4,5.7c0,2.1-0.9,4.2-2.4,5.7l-3.5,3.4C241.2,195.3,239.2,196.1,237,196.1z M236.8,181.2l-3.5,3.4
					c-1,0.9-1.5,2.2-1.5,3.5c0,1.3,0.5,2.6,1.5,3.5c1,1,2.3,1.5,3.7,1.5c1.4,0,2.7-0.5,3.7-1.5l3.5-3.4c1-0.9,1.5-2.2,1.5-3.5
					c0-1.3-0.5-2.6-1.5-3.5C242.1,179.3,238.8,179.3,236.8,181.2L236.8,181.2z"/>
			</g>
			<g>
				<path d="M348.1,148h4.9c3.7,0,6.7-2.9,6.7-6.5c0-3.6-3-6.5-6.7-6.5h-4.9c-3.7,0-6.7,2.9-6.7,6.5C341.4,145,344.4,148,348.1,148z
					"/>
				<path d="M353,149.5h-4.9c-4.5,0-8.2-3.6-8.2-8s3.7-8,8.2-8h4.9c4.5,0,8.2,3.6,8.2,8S357.5,149.5,353,149.5z M348.1,136.5
					c-2.9,0-5.2,2.2-5.2,5s2.3,5,5.2,5h4.9c2.9,0,5.2-2.2,5.2-5s-2.3-5-5.2-5H348.1z"/>
			</g>
			<g>
				<path d="M217.1,148h4.9c3.7,0,6.7-2.9,6.7-6.5c0-3.6-3-6.5-6.7-6.5h-4.9c-3.7,0-6.7,2.9-6.7,6.5C210.4,145,213.4,148,217.1,148z
					"/>
				<path d="M222,149.5h-4.9c-4.5,0-8.2-3.6-8.2-8s3.7-8,8.2-8h4.9c4.5,0,8.2,3.6,8.2,8S226.5,149.5,222,149.5z M217.1,136.5
					c-2.9,0-5.2,2.2-5.2,5s2.3,5,5.2,5h4.9c2.9,0,5.2-2.2,5.2-5s-2.3-5-5.2-5H217.1z"/>
			</g>
			<g>
				<path d="M328.4,192.7c1.3,1.3,3,1.9,4.7,1.9c1.7,0,3.4-0.6,4.7-1.9c2.6-2.5,2.6-6.6,0-9.2l-3.5-3.4c-2.6-2.5-6.8-2.5-9.4,0
					c-2.6,2.5-2.6,6.6,0,9.2L328.4,192.7z"/>
				<path d="M333.1,196.1c-2.2,0-4.2-0.8-5.8-2.3l-3.5-3.4c-1.6-1.5-2.4-3.5-2.4-5.7c0-2.1,0.9-4.2,2.4-5.7c3.2-3.1,8.4-3.1,11.5,0
					l3.5,3.4c1.6,1.5,2.4,3.5,2.4,5.7s-0.9,4.2-2.4,5.7C337.3,195.3,335.3,196.1,333.1,196.1z M329.4,191.6c1,1,2.3,1.5,3.7,1.5
					c1.4,0,2.7-0.5,3.7-1.5c1-0.9,1.5-2.2,1.5-3.5s-0.5-2.6-1.5-3.5l-3.5-3.4c-2-2-5.3-2-7.4,0c-1,0.9-1.5,2.2-1.5,3.5
					c0,1.3,0.5,2.6,1.5,3.5L329.4,191.6z"/>
			</g>
			<g>
				<path d="M235.8,102.8c1.3,1.3,3,1.9,4.7,1.9s3.4-0.6,4.7-1.9c2.6-2.5,2.6-6.6,0-9.2l-3.5-3.4c-2.6-2.5-6.8-2.5-9.4,0
					c-2.6,2.5-2.6,6.6,0,9.2L235.8,102.8z"/>
				<path d="M240.5,106.2c-2.2,0-4.2-0.8-5.8-2.3l-3.5-3.4c-1.6-1.5-2.4-3.5-2.4-5.7s0.9-4.2,2.4-5.7c3.2-3.1,8.4-3.1,11.5,0
					l3.5,3.4c1.6,1.5,2.4,3.5,2.4,5.7c0,2.1-0.9,4.2-2.4,5.7C244.7,105.3,242.7,106.2,240.5,106.2z M236.8,101.7
					c1,1,2.3,1.5,3.7,1.5c1.4,0,2.7-0.5,3.7-1.5c1-0.9,1.5-2.2,1.5-3.5c0-1.3-0.5-2.6-1.5-3.5l-3.5-3.4c-2-2-5.3-2-7.4,0
					c-1,0.9-1.5,2.2-1.5,3.5s0.5,2.6,1.5,3.5L236.8,101.7z"/>
			</g>
			<g>
				<path d="M80.7,178.7h52.2c3.4,0,6.1,2.7,6.1,6c0,3.3-2.8,6-6.1,6H94c-3.7,0-6.7,2.9-6.7,6.5c0,3.6,3,6.5,6.7,6.5h38.9
					c10.8,0,19.5-8.5,19.5-18.9s-8.7-18.9-19.5-18.9H80.7c-5,0-9.1-4-9.1-8.9c0-4.9,4.1-8.9,9.1-8.9h99.7c3.7,0,6.7-2.9,6.7-6.5
					c0-3.6-3-6.5-6.7-6.5H80.7c-12.4,0-22.5,9.8-22.5,21.8C58.2,168.9,68.3,178.7,80.7,178.7z"/>
				<path d="M132.9,205.1H94c-4.5,0-8.2-3.6-8.2-8s3.7-8,8.2-8h38.9c2.6,0,4.6-2,4.6-4.5c0-2.5-2.1-4.5-4.6-4.5H80.7
					c-13.2,0-24-10.5-24-23.3s10.8-23.3,24-23.3h99.7c4.5,0,8.2,3.6,8.2,8c0,4.4-3.7,8-8.2,8H80.7c-4.2,0-7.6,3.3-7.6,7.4
					c0,4.1,3.4,7.4,7.6,7.4h52.2c11.6,0,21,9.2,21,20.4C153.9,195.9,144.5,205.1,132.9,205.1z M94,192.1c-2.9,0-5.2,2.2-5.2,5
					s2.3,5,5.2,5h38.9c9.9,0,18-7.8,18-17.4c0-9.6-8.1-17.4-18-17.4H80.7c-5.9,0-10.6-4.7-10.6-10.4c0-5.7,4.8-10.4,10.6-10.4h99.7
					c2.9,0,5.2-2.2,5.2-5c0-2.8-2.3-5-5.2-5H80.7c-11.6,0-21,9.1-21,20.3s9.4,20.3,21,20.3h52.2c4.2,0,7.6,3.3,7.6,7.5
					c0,4.1-3.4,7.5-7.6,7.5H94z"/>
			</g>
			<g>
				<path d="M366.4,207.2h73c5,0,9.1,4,9.1,8.9c0,4.9-4.1,8.9-9.1,8.9h-33.5c-10.8,0-19.5,8.5-19.5,18.9s8.7,18.9,19.5,18.9H426
					c3.7,0,6.7-2.9,6.7-6.5c0-3.6-3-6.5-6.7-6.5h-20.2c-3.4,0-6.1-2.7-6.1-6c0-3.3,2.8-6,6.1-6h33.5c12.4,0,22.5-9.8,22.5-21.8
					c0-12-10.1-21.8-22.5-21.8h-73c-3.7,0-6.7,2.9-6.7,6.5C359.7,204.3,362.7,207.2,366.4,207.2z"/>
				<path d="M426,264.3h-20.2c-11.6,0-21-9.2-21-20.4c0-11.3,9.4-20.4,21-20.4h33.5c4.2,0,7.6-3.3,7.6-7.4c0-4.1-3.4-7.4-7.6-7.4
					h-73c-4.5,0-8.2-3.6-8.2-8s3.7-8,8.2-8h73c13.2,0,24,10.5,24,23.3c0,12.9-10.8,23.3-24,23.3h-33.5c-2.6,0-4.6,2-4.6,4.5
					c0,2.5,2.1,4.5,4.6,4.5H426c4.5,0,8.2,3.6,8.2,8C434.2,260.7,430.6,264.3,426,264.3z M405.8,226.4c-9.9,0-18,7.8-18,17.4
					c0,9.6,8.1,17.4,18,17.4H426c2.9,0,5.2-2.2,5.2-5c0-2.7-2.3-5-5.2-5h-20.2c-4.2,0-7.6-3.3-7.6-7.5c0-4.1,3.4-7.5,7.6-7.5h33.5
					c11.6,0,21-9.1,21-20.3c0-11.2-9.4-20.3-21-20.3h-73c-2.9,0-5.2,2.2-5.2,5s2.3,5,5.2,5h73c5.9,0,10.6,4.7,10.6,10.4
					c0,5.7-4.8,10.4-10.6,10.4H405.8z"/>
			</g>
			<g>
				<path d="M113.5,383.9c-3.4,1.4-4.9,5.2-3.5,8.5l1.8,4c1.1,2.4,3.5,3.9,6.1,3.9c0.9,0,1.8-0.2,2.7-0.5c3.4-1.4,4.9-5.2,3.5-8.5
					l-1.8-4C120.9,384,116.9,382.5,113.5,383.9z"/>
				<path d="M118,401.8c-3.3,0-6.2-1.9-7.5-4.8l-1.8-4c-0.9-1.9-0.9-4.1-0.1-6.1c0.8-2,2.4-3.6,4.4-4.5l0,0
					c4.1-1.7,8.9,0.1,10.7,4.2l1.8,4c0.9,1.9,0.9,4.1,0.1,6.1c-0.8,2-2.4,3.6-4.4,4.5C120.2,401.6,119.1,401.8,118,401.8z
					 M116.2,384.8c-0.7,0-1.4,0.1-2.1,0.4l0,0c-1.3,0.5-2.3,1.5-2.8,2.8c-0.5,1.2-0.5,2.5,0.1,3.7l1.8,4c0.8,1.8,2.7,3,4.8,3
					c0.7,0,1.4-0.1,2.1-0.4c1.3-0.5,2.3-1.5,2.8-2.8c0.5-1.2,0.5-2.5-0.1-3.7l-1.8-4C120.1,386,118.2,384.8,116.2,384.8z"/>
			</g>
			<g>
				<path d="M133.4,387.2l-1.8,4c-1.5,3.3,0,7.1,3.4,8.5c0.9,0.4,1.8,0.6,2.7,0.6c2.6,0,5-1.4,6.1-3.9l1.8-4c1.5-3.3,0-7.1-3.4-8.5
					C138.8,382.4,134.9,383.9,133.4,387.2z"/>
				<path d="M137.7,401.8c-1.1,0-2.2-0.2-3.3-0.7c-2-0.9-3.6-2.5-4.4-4.5c-0.8-2-0.7-4.1,0.2-6.1l1.8-4c1.8-4,6.7-5.8,10.8-4.1
					c2,0.9,3.6,2.5,4.4,4.5c0.8,2,0.7,4.1-0.2,6.1l-1.8,4C143.9,399.9,140.9,401.8,137.7,401.8z M134.7,387.8l-1.8,4
					c-0.5,1.2-0.6,2.5-0.1,3.7c0.5,1.3,1.5,2.3,2.7,2.8c0.7,0.3,1.4,0.4,2.1,0.4c2.1,0,3.9-1.2,4.7-3l1.8-4c0.5-1.2,0.6-2.5,0.1-3.7
					c-0.5-1.3-1.5-2.3-2.7-2.8C139,384.1,135.9,385.3,134.7,387.8L134.7,387.8z"/>
			</g>
			<g>
				<path d="M334,337.9c-3.4,1.4-4.9,5.2-3.5,8.5l1.8,4c1.1,2.4,3.6,3.9,6.1,3.9c0.9,0,1.8-0.2,2.6-0.5c3.4-1.4,4.9-5.2,3.5-8.5
					l-1.8-4C341.3,338,337.4,336.5,334,337.9z"/>
				<path d="M338.4,355.8c-3.3,0-6.2-1.9-7.5-4.8l-1.8-4c-0.9-1.9-0.9-4.1-0.1-6.1c0.8-2,2.4-3.6,4.4-4.5l0,0
					c4.1-1.7,8.9,0.1,10.7,4.2l1.8,4c0.9,1.9,0.9,4.1,0.1,6.1c-0.8,2-2.4,3.6-4.4,4.5C340.6,355.6,339.6,355.8,338.4,355.8z
					 M334.6,339.3c-1.3,0.5-2.3,1.5-2.8,2.8c-0.5,1.2-0.5,2.5,0.1,3.7l1.8,4c0.8,1.8,2.7,3,4.8,3c0.7,0,1.4-0.1,2.1-0.4
					c1.3-0.5,2.3-1.5,2.8-2.8c0.5-1.2,0.5-2.5-0.1-3.7l-1.8-4C340.3,339.4,337.2,338.2,334.6,339.3L334.6,339.3z"/>
			</g>
			<g>
				<path d="M353.8,341.2l-1.8,4c-1.5,3.3,0,7.1,3.4,8.6c0.9,0.4,1.8,0.6,2.7,0.6c2.6,0,5-1.4,6.1-3.9l1.8-4c1.5-3.3,0-7.1-3.4-8.5
					C359.3,336.5,355.3,337.9,353.8,341.2z"/>
				<path d="M358.2,355.8c-1.1,0-2.2-0.2-3.3-0.7c-2-0.9-3.6-2.5-4.4-4.5c-0.8-2-0.7-4.1,0.2-6.1l1.8-4c1.8-4,6.7-5.8,10.8-4.1
					c2,0.9,3.6,2.5,4.4,4.5c0.8,2,0.7,4.1-0.2,6.1l-1.8,4C364.3,353.9,361.4,355.8,358.2,355.8z M355.2,341.8l-1.8,4
					c-0.5,1.2-0.6,2.5-0.1,3.7c0.5,1.3,1.5,2.3,2.7,2.8c0.7,0.3,1.4,0.4,2.1,0.4c2.1,0,3.9-1.2,4.7-3l1.8-4c0.5-1.2,0.6-2.5,0.1-3.7
					c-0.5-1.3-1.5-2.3-2.7-2.8C359.4,338.2,356.4,339.3,355.2,341.8L355.2,341.8z"/>
			</g>
		</g>
	</g>
</g>
</svg>
