<?xml version="1.0" encoding="utf-8"?>
<!-- Generator: Adobe Illustrator 22.1.0, SVG Export Plug-In . SVG Version: 6.00 Build 0)  -->
<svg version="1.1" xmlns="http://www.w3.org/2000/svg" xmlns:xlink="http://www.w3.org/1999/xlink" x="0px" y="0px"
	 viewBox="0 0 425.2 425.2" style="enable-background:new 0 0 425.2 425.2;" xml:space="preserve">
<style type="text/css">
	.st0{stroke:#000000;stroke-miterlimit:10;}
	.st1{stroke:#000000;stroke-width:4;stroke-miterlimit:10;}
</style>
<g id="batidos">
	<g>
		<path d="M212.6,415.1c-19.7,0-39.4,0-59.1,0c-3.9,0-6.7-1.6-8.4-5c-3.1-6.3,1.5-13.6,8.6-13.7c9.4-0.1,18.8,0,28.2,0
			c2.9,0,2.9,0,2.9-3c0-5.9,0-11.7,0-17.6c0-1.7-0.6-2.9-2-4c-6-4.4-11.1-9.7-15.5-15.6c-5.4-7.2-10.1-15-14-23.1
			c-6.1-12.6-10.8-25.8-14.9-39.2c-2.5-8.3-4.6-16.7-6.7-25.1c-1.7-6.7-2.9-13.4-4.2-20.2c-1.3-6.5-2.6-13-3.7-19.5
			c-0.7-4.2-1.2-8.4-1.8-12.6c-0.7-4.9-1.4-9.7-2.1-14.6c-0.3-2.3-0.7-4.6-0.8-6.8c-0.2-3.6-1-7.1-1.1-10.8
			c-0.1-3.8-0.9-7.6-1.2-11.3c-0.4-4.2-0.7-8.4-1-12.6c-0.2-2.3,0.7-4.7,2.2-6.6c0.8-1,0.9-2,0.4-3.3c-4.3-10.2-3.2-20.1,2.5-29.4
			c2.7-4.3,6.4-7.7,10.9-10.1c1.6-0.9,2.4-1.7,2.2-3.8c-1.3-14.1,6.5-26.8,19.5-32.3c4.5-1.9,9.2-2.2,13.9-2.3
			c11.7-0.1,23.3-0.1,35,0c2,0,3-0.4,3.6-2.6c3.8-13.6,7.8-27.2,11.7-40.9c1.3-4.4,2.6-8.8,3.9-13.2c1.1-3.6,4.3-5.6,8-6
			c4.4-0.4,8,1.8,11.8,3.4c16.1,6.7,32.1,13.5,48.1,20.3c3.9,1.7,7,4.4,7,9.1c0.1,6.9-6.3,11.6-12.7,9.2c-6.9-2.6-13.6-5.6-20.4-8.5
			c-8.2-3.5-16.5-7-24.7-10.5c-1.4-0.6-2.1-0.5-2.5,1.1c-1.7,6-3.5,12-5.2,17.9c-1.7,6.1-3.5,12.1-5.2,18.2c-0.6,2-0.3,2.3,1.7,2.4
			c8.8,0,17.5,0.1,26.3,0c3.7,0,7.4,0.1,11,0.6c4.9,0.6,9.5,2.6,13.5,5.7c9.5,7.4,13.6,17.1,12.5,29.1c-0.1,1.3,0.3,1.9,1.3,2.5
			c8.4,4.4,13.5,11.2,16,20.3c1.8,6.8,0.9,13.3-1.7,19.7c-0.5,1.3-0.4,2.2,0.3,3.3c2.2,3.1,2.7,6.4,2,10.1
			c-0.8,4.1-0.5,8.2-1.1,12.3c-0.6,4.6-0.9,9.3-1.5,13.9c-0.4,2.9-0.6,5.9-0.9,8.8c-0.7,5.4-1.3,10.8-2.2,16.2
			c-0.7,4.3-1.2,8.6-1.8,12.8c-0.5,3.4-1.1,6.8-1.8,10.3c-0.7,3.6-1.4,7.2-2.1,10.8c-0.9,4.4-1.7,8.7-2.7,13.1
			c-1.3,6-2.9,11.8-4.3,17.8c-1.5,6.1-3.3,12-5.1,18c-2.2,7.6-5,15.1-8,22.4c-3.3,8.3-7.2,16.4-11.8,24.1
			c-4.7,7.9-9.9,15.3-16.6,21.7c-2.2,2.1-4.5,4.3-7.1,6c-1.2,0.8-1.7,1.8-1.7,3.3c0,6.3,0.1,12.5,0,18.8c0,1.7,0.7,2.3,2.3,2.3
			c9.6-0.1,19.2-0.1,28.8,0c4.1,0,7.2,2,8.9,5.8c1.4,3.2,1,6.3-1,9.2c-1.9,2.7-4.5,3.7-7.8,3.7C251.9,415,232.2,415.1,212.6,415.1z
			 M212.6,169.5c-24.4,0-48.8,0-73.3,0c-0.7,0-1.3,0-2,0c-0.8,0-1.1,0.4-1.1,1.2c0,4.7,0.8,9.4,1.2,14.1c0.2,2.4,0.4,4.8,0.8,7.2
			c0.5,3,1.1,6.1,1.3,9.1c0.3,4.7,1.2,9.4,1.9,14c0.6,4.8,1.6,9.6,2.3,14.3c0.3,1.9,0.6,3.9,0.9,5.8c0.6,3.4,1.5,6.8,2.1,10.2
			c0.9,5.6,2.3,11.2,3.5,16.7c1.3,5.7,3,11.3,4.3,16.9c2,8.3,4.7,16.4,7.6,24.4c4,11,8.4,22,14.7,32c5.4,8.7,11.6,16.6,20.3,22.2
			c6.4,4.1,13.4,5.2,20.6,4.1c6.5-1,11.9-4.4,16.7-8.7c6.8-6.1,12-13.5,16.3-21.4c7.2-13.1,12.3-27.1,16.8-41.4
			c2-6.3,3.5-12.6,5.3-18.9c1.3-4.9,2.5-9.8,3.5-14.7c0.8-4.4,1.9-8.8,2.8-13.3c0.7-3.3,1.2-6.7,1.8-10.1c0.7-4.3,1.4-8.5,2-12.8
			c0.6-3.9,1.4-7.9,1.9-11.8c0.5-5.2,1.2-10.3,1.9-15.4c0.9-7.1,1.6-14.2,2.2-21.3c0.2-2.9,0.2-2.8-2.7-2.8
			C261.7,169.5,237.1,169.5,212.6,169.5z M212.6,150.2c14.5,0,29,0.1,43.4,0c7.7,0,15.4,0.1,23.1-0.2c6.8-0.3,13-7.8,10-16
			c-1.7-4.8-6.2-7.7-11.5-7.9c-4.4-0.1-7.6-2.3-9-6.4c-1-3.1-0.6-6.1,1.2-8.9c1.4-2.3,2.4-4.9,2.2-7.5c-0.5-6.5-5.8-11.3-12.2-11.3
			c-31.5,0.1-63.1,0.1-94.6,0c-6.3,0-11.6,4.8-12.3,11.3c-0.3,2.6,0.8,3.7,3.4,3.7c3.2,0,6.5,0,9.7,0c25.9,0,51.7,0,77.6,0
			c4.6,0,8.8,3.4,9.5,7.5c0.8,5-1.8,9.4-6.5,11c-1.4,0.5-2.8,0.5-4.3,0.5c-31.5,0-62.9,0-94.4,0c-2.4,0-4.6,0.5-6.6,1.6
			c-5,2.9-6.6,7.3-5.9,12.9c0.6,4.1,5.1,8.8,9.2,9.2c2.8,0.2,5.5,0.4,8.3,0.4C172.9,150.1,192.7,150.2,212.6,150.2z M212.6,396.3
			c2.2,0,4.3,0,6.5,0c1.2,0,1.8-0.5,1.8-1.8c0-3.8,0-7.6,0-11.4c0-1.4-0.7-2-2-1.7c-4.2,0.9-8.5,0.9-12.7,0
			c-1.3-0.3-1.9,0.4-1.9,1.8c0,3.8,0,7.6,0,11.4c0,1.3,0.6,1.8,1.8,1.8C208.3,396.3,210.4,396.3,212.6,396.3z"/>
		<path d="M170.5,190.9c4.9-0.4,8.5,3.8,9.3,8.4c1,6.4,2.2,12.8,3,19.2c1,8,2.9,15.8,4.3,23.8c0.9,5.2,2.4,10.2,3.5,15.3
			c1.4,6.3,3.4,12.4,4.9,18.6c1.5,6.4-0.5,10.8-6.5,12.9c-3.8,1.3-8.9-0.8-10.7-4.5c-1.6-3.2-2.2-6.7-3.1-10.1
			c-1.3-4.5-2.5-9.1-3.5-13.7c-1.3-5.6-2.7-11.1-3.6-16.7c-0.8-4.8-1.9-9.6-2.8-14.5c-0.7-3.9-1.2-7.8-1.9-11.6
			c-0.7-4.6-1.4-9.2-2.2-13.8c-1-5.9,0.5-10.8,6.1-13C168.3,190.9,169.4,190.9,170.5,190.9z"/>
	</g>
</g>
<g id="galletas">
	<g>
		<path class="st0" d="M212.5,413.7c-7.1,0.1-14.1,0.2-21.2-0.6c-4.6-0.5-9.3-1.1-13.9-2c-5.2-1-10.3-2.1-15.4-3.3
			c-9.5-2.4-18.8-5.5-27.8-9.4c-11.5-4.8-22.4-10.7-32.8-17.6c-7.5-4.9-14.5-10.5-21.3-16.3c-8.9-7.7-16.9-16.2-24.3-25.2
			c-7.3-9-13.8-18.6-19.4-28.7c-5.5-9.8-10.1-19.9-13.8-30.5c-2.4-6.7-4.3-13.5-6-20.4c-1.5-6.2-2.6-12.4-3.6-18.6
			c-0.8-5.3-1.4-10.6-1.4-16c0-8.2-0.2-16.5,0-24.7c0.2-7.8,1.2-15.4,2.6-23.1c1.4-8,3.3-15.9,5.6-23.7c2.3-7.7,5.1-15.2,8.4-22.6
			c4.6-10.4,10-20.3,16.3-29.7c5.1-7.6,10.7-14.8,16.7-21.7C68.7,70.8,77,63,85.9,55.7c9-7.3,18.6-13.8,28.7-19.4
			c9.8-5.5,19.9-10.1,30.5-13.8c6.7-2.4,13.5-4.3,20.4-6c6.1-1.5,12.2-2.7,18.4-3.6c6-0.9,12.2-1.5,18.3-1.5c7,0,14-0.1,21,0
			c6.7,0.1,13.4,0.8,20,1.9c3.1,0.5,6.3,1.1,9.4,1.6c6.3,1.1,10.4,8.5,6.2,14.5c-2.6,3.7-5.5,7.3-7.3,11.6
			c-2.9,7.2-4.1,14.6-2.8,22.4c1.1,6.2,3.4,12,7.1,17c4.7,6.5,10.9,11.1,18.5,13.9c3.4,1.3,6.2,3.3,7.3,7.1c0.9,3-0.2,5.8-0.9,8.6
			c-1.4,5.3-1.5,10.6-0.7,16.1c0.8,5.5,2.9,10.4,5.8,15c3,4.9,7.1,8.9,12,12c3.6,2.3,7.4,4.2,11.6,5.2c5.5,1.3,11.1,1.8,16.7,0.6
			c4.8-1.1,9.1,0.6,11.5,4.7c0.6,1,0.9,2.1,0.9,3.4c0.4,11.2,3.8,21.2,11.7,29.3c5.5,5.6,12.2,9.3,19.9,11.2
			c4.5,1.1,9.1,0.9,13.7,0.6c4.7-0.4,9.1-2,13.4-4.1c2.5-1.3,4.9-3,8-2.8c4.6,0.3,8.4,3.8,8.4,8.4c0.1,8.2,0.3,16.4-0.6,24.5
			c-0.5,4.6-1.2,9.2-2,13.7c-0.9,5.2-2.1,10.3-3.3,15.5c-2.3,9.4-5.5,18.5-9.2,27.4c-4.9,11.6-10.8,22.7-17.7,33.1
			c-5,7.5-10.5,14.5-16.3,21.3c-7.7,8.9-16.2,16.9-25.2,24.3c-9,7.3-18.6,13.8-28.7,19.4c-9.8,5.5-19.9,10.1-30.5,13.8
			c-6.7,2.4-13.5,4.3-20.4,6c-6.2,1.5-12.5,2.7-18.8,3.6c-7.8,1.1-15.7,1.7-23.6,1.5C215.6,413.7,214,413.7,212.5,413.7z
			 M377.8,227.1c-3.1,0.5-6.6-0.3-10-1c-7.7-1.5-14.8-4.4-21.4-8.9c-13.3-9-21.5-21.3-25-36.8c-0.4-1.6-0.9-2-2.4-2
			c-5.7,0-11.2-0.9-16.5-2.6c-18.9-6.3-31.9-18.9-38.6-37.8c-1.3-3.8-2-7.8-2.6-11.8c-0.6-4.4-0.9-8.7,0.1-13c0.6-2.8,0.4-4-2.2-5.3
			c-3.8-2-7.2-4.6-10.3-7.4c-5.9-5.4-10.7-11.8-14-19.2c-2.9-6.5-4.4-13.3-5.2-20.4c-0.7-6.4,0.4-12.5,1.8-18.6
			c0.8-3.4,2-6.8,3.5-9.9c0.5-1,0.2-1.4-0.9-1.5c-1.4,0-2.9,0-4.3-0.2c-6.6-1-13.2-0.9-19.8-0.8c-5.7,0.1-11.3,0-17,0.9
			c-4.6,0.7-9.2,1.2-13.7,2c-5.2,0.9-10.3,2.2-15.4,3.6c-8.1,2.2-16.1,5-23.8,8.3c-15.7,6.7-30.1,15.5-43.2,26.3
			c-7.7,6.3-14.8,13.3-21.4,20.7c-7.9,8.8-14.8,18.3-20.8,28.5C48.2,131,43,142.5,39,154.6c-2.3,6.9-4.2,14-5.7,21.1
			c-1.2,6.1-2,12.3-2.7,18.6c-0.8,6.7-0.9,13.4-0.8,20.1c0.1,7.8,0.4,15.6,1.7,23.4c1.1,6.8,2.3,13.5,3.9,20.1
			c2.7,10.9,6.4,21.4,11.2,31.5c7.1,15.2,16,29.2,27,41.9c9.8,11.4,20.8,21.5,33,30.2c11.7,8.3,24.1,15.1,37.4,20.6
			c8.1,3.3,16.3,6,24.7,8.1c6.2,1.5,12.4,2.8,18.8,3.5c5.2,0.6,10.3,1.3,15.6,1.5c7,0.3,14,0.1,21-0.1c7.3-0.2,14.4-1.4,21.5-2.6
			c5.2-0.9,10.4-2.2,15.6-3.6c10-2.8,19.6-6.3,29-10.7c10.3-4.9,20.1-10.7,29.3-17.4c7.3-5.3,14.3-11,20.7-17.4
			c5.4-5.5,10.6-11.2,15.5-17.2c7.2-8.9,13.3-18.4,18.7-28.4c5.6-10.4,10-21.3,13.4-32.6c1.7-5.9,3.2-11.8,4.3-17.8
			c0.6-3.6,1.4-7.2,1.8-10.8c0.4-3.4,0.9-6.7,1.2-10.1c0.1-1.2-0.2-1.8-1.7-1.4C388.4,226.5,383.4,227.3,377.8,227.1z"/>
		<path class="st0" d="M283.6,319.6c0,16.5-13.8,30.1-30.4,29.9c-16.8-0.2-30.1-13.3-29.9-30.4c0.2-17,13.1-29.9,30.1-29.9
			C270.4,289.2,283.5,302.6,283.6,319.6z M264.8,319.5c0.5-6.2-5.2-11.5-11.2-11.6c-6.3-0.1-11.7,5.6-11.7,11.4
			c0,6.3,5.5,11.5,11.6,11.6C259.3,331,265.5,325.3,264.8,319.5z"/>
		<path class="st0" d="M157.2,138.1c0.5,15.7-13,28.5-28.3,28.5c-15.2,0-28.5-12.7-28.4-28.7c0.1-15.2,12.7-28.2,28.4-28.2
			C144.7,109.7,157.7,122.8,157.2,138.1z M128.9,147.8c5.5,0,9.8-4.4,9.8-9.9c-0.1-5-4.8-9.7-9.7-9.7c-5.1,0-9.8,4.8-9.7,9.9
			C119.3,143.6,123.5,147.8,128.9,147.8z"/>
		<path class="st0" d="M259.7,243.6c-16.2,0.2-28.5-13.2-28.4-28.4c0.1-15.7,12.7-28.3,28.5-28.3c15.8,0,28.5,13.1,28.4,28.4
			C288.2,230.6,275.7,244,259.7,243.6z M269.5,215.3c0-5.4-4.4-9.7-9.7-9.7c-5.2,0-9.9,4.6-10,9.6c0,5.1,4.6,9.8,9.8,9.8
			C265.2,225,269.5,220.8,269.5,215.3z"/>
		<path class="st0" d="M136.1,281.2c0.4,14-11.2,25.2-25,25c-14.4-0.2-24.9-10.6-25.1-25.1c-0.1-13,9.6-24.8,25.4-25.1
			C124.4,255.9,136.8,267.7,136.1,281.2z M111.3,275c-4.2-0.4-6.4,3-6.6,6.2c-0.2,3.3,3,6.4,6.4,6.4c3.6,0,6.5-2.9,6.4-6.5
			C117.4,277.4,114.9,274.6,111.3,275z"/>
	</g>
</g>
<g id="bolleria">
	<g>
		<path d="M11.6,284.1c-0.3-6.8,0.1-13,1.3-19c2.2-11.1,5.6-21.8,10.2-32.2c3.5-7.8,7.7-15.3,12.4-22.5c0.7-1.1,0.9-2,0.5-3.3
			c-0.6-1.8,0.2-3.7,0.8-5.3c5-13.2,12.6-24.6,23-34.1c8.3-7.6,17.8-13.4,28.3-17.2c7.6-2.8,15.5-5,23.8-5c0.3,0,0.5,0,0.8-0.1
			c4.8-0.9,4.5,0.1,5.4-5c0.5-2.6,2-4.5,4-6.1c5.5-4.6,11-9.2,17.1-13.1c10.4-6.7,21.4-11.9,33.2-15.7c4.7-1.5,9.5-2.7,14.4-3.6
			c4.8-0.9,9.6-1.8,14.5-1.9c3.7-0.1,7.4-0.9,11.1-0.7c6,0.2,12,0.8,17.9,1.4c6.9,0.7,13.6,2.2,20.2,4.1c9.6,2.8,18.8,6.7,27.5,11.6
			c5.9,3.3,11.5,7,16.9,11.1c3,2.3,5.7,4.8,8.6,7.2c2.2,1.9,3.6,4.1,3.8,7.1c0.2,2.2,1.2,3.4,3.6,3.5c5.1,0.2,10.2,0.8,15.1,2
			c5.2,1.3,10.3,2.9,15.2,5c12,5.1,22.2,12.7,30.9,22.4c6.1,6.7,10.8,14.4,14.5,22.7c1.1,2.6,2.3,5.1,2.7,7.9
			c0.1,0.4,0.3,0.9,0.2,1.1c-1.3,2.7,0.4,4.5,1.7,6.4c7.5,11.2,13,23.4,17.1,36.2c1.9,5.8,3.2,11.8,4.3,17.8
			c1.5,8.2,1.5,16.4,1,24.6c-0.9,14.4-10.6,28.8-26.2,33.2c-9.8,2.8-18.9,1.2-27.4-3.8c-7.5-4.5-12-11.4-14.3-19.9
			c-2-7.4-5.2-14.1-9.5-20.5c-1.9-2.8-4-2.9-6.7-2.1c-6.8,2.1-13.8,1.9-20.6,1.2c-8.4-0.9-16.6-3.4-24.1-7.5c-1-0.5-1.7-0.4-2.4,0.4
			c-6.8,6.6-14.3,12.2-22.7,16.6c-6.5,3.5-13.3,6.2-20.5,8.1c-9.4,2.5-18.9,3.8-28.6,3.7c-4.3-0.1-8.6-0.8-12.8-1.3
			c-7.7-1-15.1-3.1-22.2-5.9c-7.7-3.1-14.9-7.2-21.6-12.2c-3.7-2.8-7.3-5.8-10.6-9c-0.9-0.9-1.7-0.9-2.8-0.3
			c-6.1,3.2-12.6,5.5-19.3,6.6c-8.5,1.5-17,1.7-25.4-0.5c-0.8-0.2-1.7-0.2-2.5-0.5c-1.1-0.5-1.7,0-2.3,0.8
			c-4.3,5.2-7.4,11.1-9.6,17.4c-1.9,5.3-3,10.8-6.3,15.6c-4.5,6.4-10.3,10.8-17.9,12.9c-3.3,0.9-6.7,1.8-10.2,1.6
			c-13.3-0.7-23.4-6.7-30.1-18.2C12.4,300.2,10.9,292,11.6,284.1z M212.5,119c-3.5,0-7.2-0.4-10.8,0.1c-5.4,0.7-10.8,1.6-16.1,2.8
			c-8.3,1.9-16.1,4.8-23.7,8.5c-7.8,3.7-15.1,8.3-21.7,13.9c-1.3,1.1-3.1,1.8-3.3,3.9c-0.3,2.9-0.8,5.7-0.6,8.6
			c0.3,5.4,0.6,10.8,0.7,16.2c0.1,3.2,0.3,6.5,1,9.7c0.5,2.5,0.2,5.1,0.9,7.6c1.4,5.5-1.8,10.9-7.4,12.4c-4.5,1.2-10-2.3-11.2-7.2
			c-0.7-2.8-0.8-5.7-1.2-8.5c-0.8-6.8-1.6-13.7-1.7-20.6c0-1.4-0.6-2-2-2c-3.6,0-7,0.9-10.4,1.4c-6.2,1-12,3.2-17.5,6.1
			c-13.9,7.3-24.2,18.2-30.8,32.6c-0.5,1-0.5,1.8,0,2.8c3.2,6.7,6.7,13.3,10.8,19.6c7.7,11.6,16.6,22.2,27.7,30.7
			c1.9,1.5,4,2.2,6.2,2.6c4.6,0.7,9.3,0.9,14,0.2c6.5-1,12.5-3,18.1-6.3c0.9-0.5,1.2-1.1,0.8-2.1c-3-8.8-5.9-17.6-8.1-26.6
			c-1.2-5,0-9,4.6-11.4c6.1-3.1,12-0.1,13.9,6.5c2.1,7,4,14,6.3,21c1.8,5.6,4,11,6.1,16.5c0.4,1.1,0.8,2.1,1.6,2.9
			c2.8,2.5,5.8,4.9,8.9,7c13.3,8.8,27.9,13.6,44,13.6c7.7,0,15.3-0.7,22.6-2.8c10-2.8,19.3-7.3,27.5-13.9c2.2-1.8,5-3.2,6.1-5.9
			c4.9-11.7,8.5-23.8,11.9-36c1.1-3.8,1.8-7.6,2.6-11.4c1-4.4,2.1-8.9,2.7-13.4c0.6-4.4,1.5-8.9,1.9-13.3c0.5-5.7,1.5-11.4,1.4-17.1
			c0-0.9,0-1.8,0.1-2.7c0.4-4.9,0.6-9.9,0.2-14.9c-0.2-2-0.6-3.7-2.4-4.8c-1.1-0.7-2.2-1.6-3.3-2.5c-6.6-5.4-14-9.6-21.7-13.3
			c-8.7-4.1-17.8-7.1-27.3-8.8C227,119.3,219.9,118.3,212.5,119z M378,306.5c1.2-0.1,2.5,0.1,3.7-0.3c7.8-2.4,11.2-7.6,12.5-15.3
			c0.8-4.3,0.7-8.8,0.3-13.2c-0.6-6.5-1.9-12.8-3.6-19c-2.4-9-5.9-17.7-10.4-25.9c-0.5-1-0.7-2.6-1.7-2.6c-1,0-1.3,1.6-1.9,2.5
			c-2,3.3-5,5.4-8.9,5.1c-4.1-0.2-7.3-2.5-8.7-6.6c-1-2.9-0.4-5.6,1-8.3c2.7-5.2,6-10.1,8.2-15.6c0.4-1,0.5-1.8,0-2.8
			c-2.8-6.6-6.7-12.4-11.4-17.7c-5.9-6.6-12.7-11.8-20.7-15.6c-5.3-2.6-10.8-4.6-16.6-5.6c-3.3-0.5-6.5-1.4-9.9-1.4
			c-1.6,0-2.1,0.6-2.2,2.2c-0.5,5.9-0.7,11.8-1.4,17.7c-0.8,7.1-1.9,14.2-3.1,21.2c-1.2,6.7-2.6,13.3-4.3,19.8
			c-2.2,8.8-4.9,17.5-7.9,26c-0.5,1.4-0.3,2.1,1,2.8c5.6,3.3,11.6,5.2,18,6.2c4.8,0.7,9.4,0.4,14-0.3c1.7-0.3,3.6-0.6,5.1-1.8
			c5-3.9,9.8-8.1,14.1-12.7c1-1.1,2.1-1.9,3.3-2.8c4.1-3.2,11.7-1.8,14,3.9c1.8,4.4,0.6,8.2-2.6,11.5c-2.1,2.2-4.3,4.4-6.5,6.5
			c-2,2-2.1,2-0.4,4.3c5.9,7.7,10,16.3,12.5,25.7C366,302.7,370.8,306.7,378,306.5z M47,306.4c6.5,0.5,11.9-3.5,13.7-9.9
			c0.8-2.9,1.6-5.8,2.7-8.6c2.8-6.9,6-13.6,10.8-19.4c1.2-1.5,1.1-2.4-0.3-3.7c-6.3-5.8-11.7-12.3-16.8-19.1
			c-3.4-4.5-6.5-9.2-9.3-14c-1.1-1.9-1.5-1.9-2.4-0.2c-4.4,8.1-8,16.6-10.5,25.4c-2,7-3.5,14.1-4.2,21.4c-0.5,5.4-0.3,10.5,1,15.7
			C33.5,301.2,39.8,306.9,47,306.4z"/>
	</g>
</g>
<g id="burgers">
	<g>
		<path class="st1" d="M212.6,356.5c-47.5,0-95,0-142.5,0c-10,0-18.9-3.2-26.2-10.1c-4.7-4.5-8.1-10-9.8-16.4
			c-1.3-5-1.8-10.1-1.6-15.3c0.1-1.6-0.4-2.5-2.1-3.1c-9.9-3.7-16.6-10.6-18.5-21.1c-2.9-16,5.4-29.4,20.2-33.6
			c4.1-1.2,8.3-1.7,12.6-1.5c1.7,0.1,2.4-0.5,2.3-2.2c-0.1-4.5-0.1-9,0-13.5c0-1.4-0.5-2.1-1.7-2.7c-3.9-1.9-8.1-2.5-12.3-2.7
			c-3.7-0.2-6.2-2.1-7.3-5.9c-0.7-2.5,0.9-5.9,3.5-7.5c1.4-0.9,3-1.1,4.5-1c3.9,0.4,8,0,11.7,1.7c0.9,0.4,1.5-0.1,1.6-1.1
			c0-2.5,0-5.1,0-7.6c0-1.1-0.8-1.6-1.7-2c-5.9-2.7-9.8-7.3-11.7-13.5c-0.6-2-1-4.1-1.1-6.1c-0.4-6.5,0.3-12.9,1-19.3
			c0.6-5.6,2.1-11.1,4-16.5c4.7-12.8,12.2-23.7,21.4-33.6c7.6-8.3,16.3-15.3,25.6-21.4c9.8-6.5,20.4-11.6,31.4-15.8
			c8.6-3.3,17.4-5.8,26.3-8.1c7.2-1.8,14.5-3.2,21.8-4.3c6-0.9,12.2-1.4,18.2-2c13.6-1.3,27.1-1.6,40.7-1.3
			c6.3,0.2,12.6,0.6,18.9,1.2c3.7,0.4,7.4,0.6,11.1,1.1c4.6,0.6,9.2,1,13.7,2c3.1,0.7,6.3,1.2,9.4,1.7c4,0.7,7.9,1.8,11.8,2.8
			c9.9,2.5,19.5,5.8,28.8,9.9c6.9,3,13.5,6.5,20,10.3c9.2,5.5,17.6,12,25.2,19.4c10.4,10.3,19.2,21.8,24.6,35.5
			c2.1,5.2,3.6,10.6,4.4,16.2c1.1,7.2,1.8,14.5,1.4,21.8c-0.4,8.9-4.3,15.8-12.4,19.8c-1.4,0.7-2.1,1.6-2,3.2c0.1,2.1,0,4.2,0,6.3
			c0,1.4,0.6,1.8,2,1.4c4.5-1.5,9.1-1.7,13.7-1.2c3.2,0.3,6,4,5.8,7.1c-0.2,3.6-3.3,6.9-6.7,7c-4.3,0.2-8.4,0.8-12.4,2.4
			c-1.7,0.7-2.5,1.7-2.4,3.7c0.1,4.2,0,8.4,0,12.5c0,2.5,0.1,2.6,2.5,2.6c5,0,9.9,0.4,14.6,2.2c8.5,3.2,14.4,9.2,17.1,17.9
			c2.2,7.3,2.1,14.6-1.3,21.6c-3.5,7.2-9.1,12.2-16.8,14.7c-1.2,0.4-1.8,1-1.7,2.2c0.3,4.3-0.3,8.6-0.8,12.9
			c-0.4,2.9-1.3,5.7-2.6,8.4c-4,8.5-10.4,14.8-19.1,18.5c-4.5,1.9-9.2,2.8-14.1,2.8C308.2,356.6,260.4,356.5,212.6,356.5z
			 M212.4,198.1c51.8,0,103.7,0,155.5,0c0.8,0,1.6,0,2.4,0c4.5-0.2,7.4-3.1,7.5-7.6c0-3.5,0.2-7.1-0.1-10.6
			c-0.4-5.3-1.1-10.6-2.6-15.8c-2.3-7.9-6.3-15-11-21.7c-5.4-7.7-11.8-14.5-18.9-20.5c-6-5.1-12.5-9.4-19.3-13.4
			c-8.7-5-17.9-8.9-27.3-12.2c-6.6-2.3-13.4-4.2-20.3-5.8c-6-1.4-12.1-2.6-18.2-3.5c-5.1-0.8-10.2-1.4-15.3-1.8
			c-7-0.6-14-1.3-21.1-1.4c-8.2-0.1-16.3-0.2-24.5,0c-5.9,0.1-11.7,0.7-17.6,1.2c-5.8,0.5-11.6,1.1-17.3,2.1
			c-6.1,1.1-12.1,2.2-18.2,3.6c-7,1.6-13.9,3.6-20.6,6c-14,5-27.3,11.5-39.3,20.4c-5.4,4-10.5,8.4-15.2,13.3
			c-6.5,6.8-12,14.4-16.5,22.7c-3.3,6.1-5.1,12.7-6.3,19.4c-1,6-1,12.1-0.9,18.2c0.1,4.2,2.4,7,6.5,7.6c1,0.1,2,0.1,2.9,0.1
			C108.7,198.1,160.5,198.1,212.4,198.1z M287.9,270.3c-17.3,0-34.6,0-52,0c-15.4,0-30.7,0-46.1,0c-2.3,0-2.3,0.1-1.4,2.1
			c1.8,4,2.8,8.1,2.6,12.5c-0.2,3.6-2.9,6.4-6.7,6.7c-3.8,0.3-6.8-2-7.6-5.6c-0.4-1.9-0.4-3.9-1-5.8c-2.1-6.2-7.4-10-14-10
			c-40.4,0-80.8,0.1-121.2-0.1c-7.3,0-14,6.1-14.6,12.8c-0.7,8.6,6.1,15.5,13.6,15.5c69.7-0.1,139.5-0.1,209.2,0
			c5.7,0,11.2-4.5,12.9-9c0.8-2.2,0.8-4.5,1.3-6.7c1-3.7,3.8-5.9,8-5.6c3.1,0.2,6,3.5,6.2,6.8c0.2,4.3-0.8,8.3-2.5,12.1
			c-1,2.2-1,2.3,1.4,2.3c36.4,0,72.8,0,109.2,0c1.4,0,2.8-0.2,4.2-0.7c8.1-2.9,11.1-10.7,8.7-18c-2-6.2-7.3-9.5-13.8-9.5
			C352.3,270.3,320.1,270.3,287.9,270.3z M212.6,313.4c-53.8,0-107.6,0-161.4,0c-0.7,0-1.4,0-2.2,0c-1,0-1.6,0.4-1.6,1.5
			c0.1,3.4-0.1,6.7,0.5,10.1c1.8,8.9,10.6,16.6,20.8,16.6c95.8-0.1,191.6,0,287.5,0c8.1,0,14.1-3.6,18.4-10.4
			c3.3-5.1,3.2-10.9,3-16.7c0-0.8-0.5-1.2-1.3-1.2c-0.8,0-1.6,0-2.4,0C320.2,313.4,266.4,313.4,212.6,313.4z M212.8,213
			c-49.1,0-98.2,0-147.2,0c-0.7,0-1.4,0-2.2,0c-1.2,0-1.8,0.5-1.8,1.8c0,4.4,0,8.9,0,13.3c0,0.9,0.3,1.6,1.2,2.1
			c7.3,4.1,15.1,4.7,23.1,2.8c4.5-1.1,8.2-3.6,12-6c5.2-3.3,10.8-5.7,16.8-6.7c4-0.6,8.1-0.7,12.3-0.4c6.9,0.5,13.2,2.7,19.1,6.3
			c5.7,3.5,11.3,7.1,18.4,7.6c5.1,0.3,10-0.2,14.7-2.1c4-1.6,7.4-4.1,11.1-6.3c4.5-2.7,9.4-4.5,14.4-5.2c3.9-0.6,8-0.6,12.1-0.3
			c6.9,0.5,13.1,2.7,18.9,6.2c5.7,3.4,11.2,7.1,18.2,7.6c6.9,0.5,13.2-0.4,19.1-4.1c8.1-5,16.2-9.5,26.2-9.8
			c6.1-0.2,12.1,0.3,17.9,2.2c4.5,1.5,8.5,3.9,12.5,6.5c3.5,2.3,7.2,4.2,11.4,4.9c4,0.6,8,0.9,12,0.1c3.3-0.6,6.4-1.6,9.3-3.4
			c0.8-0.5,1.2-1.2,1.2-2.1c0-4.4,0-8.8,0-13.1c0-1.2-0.5-1.8-1.7-1.8c-0.7,0-1.4,0-2.2,0C310.7,213,261.7,213,212.8,213z
			 M212.6,255.4c49,0,98,0,147,0c0.7,0,1.4,0,2.2,0c1.3,0,1.8-0.6,1.7-1.8c0-2,0-3.9,0-5.9c0-1.3-0.3-1.7-1.7-1.2
			c-7.3,2.5-14.8,2.7-22.2,1.7c-5.9-0.8-11.4-3.2-16.5-6.4c-5.5-3.5-11-6.6-17.7-7.2c-3.8-0.3-7.4,0.3-11,0.9
			c-4.8,0.9-8.7,3.8-12.7,6.3c-5.1,3.2-10.6,5.5-16.5,6.4c-4,0.6-8,0.6-12.1,0.3c-7-0.5-13.2-2.8-19.1-6.3
			c-5.5-3.3-10.8-6.9-17.6-7.5c-7.1-0.6-13.6,0.5-19.7,4.1c-4.3,2.6-8.5,5.5-13.2,7.2c-6.3,2.3-12.8,2.9-19.6,2.5
			c-7.6-0.5-14.4-2.9-20.7-6.9c-5.3-3.4-10.7-6.4-17.2-7c-4.9-0.4-9.6,0.3-14.2,1.8c-3.6,1.2-6.6,3.4-9.7,5.4
			c-5.1,3.2-10.6,5.6-16.5,6.4c-7.4,1-14.9,0.9-22-1.6c-1.7-0.6-1.9,0-1.9,1.4c0,1.4,0,2.7,0,4.1c0,3.3,0,3.3,3.4,3.3
			C114.2,255.4,163.4,255.4,212.6,255.4z"/>
		<path class="st1" d="M306.2,115c1.4-0.2,2.6,0.4,3.8,1c13.1,6.5,25.2,14.4,35.1,25.2c6.5,7.1,12.3,14.8,15.5,24
			c1.2,3.5,2.1,7.1,2.4,10.8c0.3,3.9-2.5,7.4-6.4,8c-3.6,0.6-7.2-2.1-8.1-6.2c-1.2-5.1-2.2-10.2-5.2-14.7
			c-4.7-7.1-10-13.6-16.7-19.1c-7.1-5.8-14.8-10.6-23-14.7c-2.2-1.1-3.9-2.6-4.8-5.1C297.5,119.8,301.9,114.4,306.2,115z"/>
		<path class="st1" d="M284.3,112.2c0,4.3-3.7,7.7-8,7c-3.7-0.5-7.4-1.4-11.1-2.3c-1.5-0.4-3.1-0.5-4.5-1.1c-4-1.5-5.8-5.1-4.6-9.3
			c1-3.5,5-5.7,8.7-4.8c4.4,1,8.9,2,13.3,3C281.6,105.5,284.8,108.6,284.3,112.2z"/>
		<path class="st1" d="M140.8,169.5c-0.3-3.2,1.4-5,3.6-6.4c2.5-1.5,5.3-1.4,7.5,0.4c3.5,2.8,6.8,5.9,9.4,9.7
			c1.7,2.5,1.1,6.3-1.1,8.7c-2,2.1-5.4,2.7-8.1,1.4c-0.9-0.5-1.8-1-2.6-1.8c-2.1-2.1-4.2-4.1-6.2-6.2
			C141.7,173.6,140.3,171.8,140.8,169.5z"/>
		<path class="st1" d="M284.3,169.5c-0.1-2.3,1.1-4,2.6-5.6c2.1-2.2,4.2-4.3,6.4-6.4c2-1.9,4.2-3.1,7.1-2.4c3.2,0.9,5,3.1,5.7,6.3
			c0.3,1.5-0.2,2.8-0.9,3.9c-2.8,4.3-6.3,8-10.7,10.6C289.7,178.9,284,173.6,284.3,169.5z"/>
		<path class="st1" d="M255.5,155c-2.2,0.4-3.9-0.9-5.4-2.4c-2.2-2.1-4.4-4.3-6.5-6.5c-3.4-3.7-3.1-8.3,0.7-11.2
			c2.1-1.6,4.8-2,6.8-0.8c4.7,2.7,8.5,6.6,11.3,11.3C264.7,149.3,260.4,155.7,255.5,155z"/>
		<path class="st1" d="M111.7,147.9c3.2-0.1,5.2,1.5,6.5,3.9c1.3,2.3,1.3,4.9-0.2,7.1c-2.6,3.6-5.7,6.8-9.3,9.4
			c-3,2.1-6.7,1.6-9.2-1.1c-2.3-2.4-2.7-6.1-0.6-9c2.6-3.4,5.7-6.4,9.1-9.1C109.2,148.2,110.5,147.8,111.7,147.9z"/>
		<path class="st1" d="M205.7,97.7c1.6-0.2,3.2,0.5,4.5,1.8c2.4,2.4,5,4.7,7.2,7.2c2,2.2,3.1,4.7,1.8,7.9c-1.8,4.5-7.3,6.3-11,3.3
			c-3.1-2.5-5.9-5.4-8.5-8.4c-1.9-2.2-2.5-4.7-1.1-7.5C200.1,99.2,202.2,97.6,205.7,97.7z"/>
		<path class="st1" d="M198.1,148.1c0.4,2.1-0.8,3.7-2.2,5.2c-2.1,2.2-4.2,4.4-6.5,6.5c-3.6,3.3-8,3.3-10.9,0
			c-2.1-2.3-2.5-6-0.7-8.5c2.6-3.6,5.8-6.7,9.3-9.4c2.2-1.7,4.7-1.6,7-0.6C196.7,142.6,198.3,144.8,198.1,148.1z"/>
		<path class="st1" d="M230.5,184c-1.3,0-2.6,0.1-3.9,0c-3.6-0.2-6.5-3.1-6.8-6.8c-0.3-3.6,2-6.5,5.5-7.4c3.6-0.9,7.2-0.9,10.8,0.1
			c3.6,1,5.5,4,5.1,8.1c-0.3,2.8-3.4,5.8-6.4,6C233.4,184,231.9,184,230.5,184C230.5,184,230.5,184,230.5,184z"/>
		<path class="st1" d="M140.8,122.7c0.1-2.8-0.6-5.7,1.6-8.2c1.6-1.8,4.7-3.1,6.9-2.4c3,0.9,5.1,2.6,5.7,5.8
			c0.5,3.1,0.5,6.2,0.1,9.4c-0.6,4.5-4.4,6.6-7.3,6.5c-3.7-0.2-7-3-6.9-7.1C140.8,125.3,140.8,124,140.8,122.7z"/>
	</g>
</g>
</svg>
