<?xml version="1.0" encoding="utf-8"?>
<!-- Generator: Adobe Illustrator 22.1.0, SVG Export Plug-In . SVG Version: 6.00 Build 0)  -->
<svg version="1.1" id="Capa_2" xmlns="http://www.w3.org/2000/svg" xmlns:xlink="http://www.w3.org/1999/xlink" x="0px" y="0px"
	 viewBox="0 0 1238.4 337.6" style="enable-background:new 0 0 1238.4 337.6;" xml:space="preserve">
<style type="text/css">
	.st0{fill:#1D1D1B;}
	.st1{clip-path:url(#SVGID_2_);}
	.st2{fill:#555EDB;}
</style>
<g>
	<g>
		<path class="st0" d="M222.8,150.7h-54.2V21.1h52.1c25.3,0,40,14.2,40,36.4c0,14.4-9.5,23.7-16,26.8c7.8,3.6,17.8,11.8,17.8,29.1
			C262.5,137.6,246,150.7,222.8,150.7z M218.6,43.7h-24.8v29.8h24.8c10.7,0,16.7-6,16.7-14.9C235.4,49.7,229.4,43.7,218.6,43.7z
			 M220.3,96.3h-26.4v31.9h26.4c11.5,0,16.9-7.3,16.9-16S231.8,96.3,220.3,96.3z"/>
		<path class="st0" d="M362.1,150.7l-7.6-22.9h-46l-7.8,22.9h-26.4l47.1-129.6h19.8l47.3,129.6H362.1z M331.9,59.4l-16.4,47.1h32.2
			L331.9,59.4z"/>
		<path class="st0" d="M479.8,150.7l-33.3-59l-16.7,20v38.9h-25.3V21.1h25.3v56.4l45.7-56.4h30.8l-43,51.5l46,78.1H479.8z"/>
		<path class="st0" d="M525.5,150.7V21.1h85.4v22.6h-60.1v30.4h51.1v22.6h-51.1v31.5h60.1v22.6H525.5z"/>
		<path class="st0" d="M168.6,305.7V176.1H254v22.6h-60.1v30.4H245v22.6h-51.1v31.5H254v22.6H168.6z"/>
		<path class="st0" d="M325.8,305.7h-18.9l-42.8-129.6h26.2l26,84.5l26-84.5h26.4L325.8,305.7z"/>
		<path class="st0" d="M384.4,305.7V176.1h85.4v22.6h-60.1v30.4h51.1v22.6h-51.1v31.5h60.1v22.6H384.4z"/>
		<path class="st0" d="M563.4,305.7L538.1,254h-18.2v51.7h-25.3V176.1h50.8c26.4,0,42,18,42,39.7c0,18.2-11.1,29.5-23.7,34
			l28.9,55.9H563.4z M543.7,198.7h-23.8v34.2h23.8c11.1,0,18.4-7.1,18.4-17.1C562.1,205.8,554.8,198.7,543.7,198.7z"/>
		<path class="st0" d="M663.1,252.6v53.1H638v-53.1L599,176.1h27.5l24.2,52.2l23.8-52.2H702L663.1,252.6z"/>
		<path class="st0" d="M767.2,198.7v107h-25.3v-107H708v-22.6h93v22.6H767.2z"/>
		<path class="st0" d="M890.8,305.7v-54.2h-43.9v54.2h-25.3V176.1h25.3v53h43.9v-53h25.3v129.6H890.8z"/>
		<path class="st0" d="M946.3,305.7V176.1h25.3v129.6H946.3z"/>
		<path class="st0" d="M1078.4,305.7l-51.3-79.5v79.5h-25.3V176.1h22.6l51.3,79.4v-79.4h25.3v129.6H1078.4z"/>
		<path class="st0" d="M1211.1,292.1c-10,10.2-22,14.7-36.6,14.7c-13.8,0-25.5-4.7-34.9-14.2c-5.6-5.6-9.1-12.2-10.6-19.5
			s-2.2-18-2.2-32.2c0-14.2,0.7-24.9,2.2-32.2c1.5-7.5,4.9-13.8,10.6-19.5c9.5-9.5,21.1-14.2,34.9-14.2c29.5,0,45.3,18.9,48.8,41.5
			h-25.5c-3.1-12.6-10.7-18.9-23.3-18.9c-6.7,0-12.2,2.4-16.2,6.9c-4.7,6-6.2,10.7-6.2,36.4c0,25.5,1.1,30.6,6.2,36.6
			c3.8,4.5,9.3,6.7,16.2,6.7c7.5,0,13.5-2.4,18-7.3c3.8-4.4,5.8-10.2,5.8-17.3v-4.9h-23.8v-21.1h49v18.9
			C1223.5,271.5,1220,282.6,1211.1,292.1z"/>
	</g>
	<g>
		<defs>
			<rect id="SVGID_1_" y="21.1" width="139.6" height="316.4"/>
		</defs>
		<clipPath id="SVGID_2_">
			<use xlink:href="#SVGID_1_"  style="overflow:visible;"/>
		</clipPath>
		<g class="st1">
			<path class="st2" d="M114.8,92.1c0,42.1,0,84.3-0.1,126.4c0,3.4,1,6,3.1,8.7c15.1,18.6,18.3,39.3,8.8,61.1
				c-9.3,21.3-26.3,33.1-49.7,35c-33.3,2.7-62.9-23.6-63-58.9c0-14.1,4.7-26.9,14.1-37.6c2.1-2.4,2.9-4.9,2.9-8.1
				c-0.1-84.3-0.1-168.6,0-252.9c0-20.1,13.2-37,32.2-41.4c26.4-6.2,51.6,13.6,51.7,40.7C114.8,7.6,114.8,49.9,114.8,92.1z M96,95.7
				C96,52.3,96,8.9,96.1-34.4c0-8-3.1-14.3-9.3-18.9c-7.5-5.6-15.9-6.3-24.3-2.2C53.8-51.2,49.6-44,49.6-34.1
				c0,86.8,0,173.5,0.1,260.3c0,3.6-0.8,6.3-3.7,8.8c-9.7,8.5-13.9,19.3-13.4,32.2c0.8,23.5,23.8,42.1,46.8,37.6
				c16.2-3.2,27.3-12.5,31.9-28.4c4.6-15.7,0.7-29.8-11.5-41.1c-2.9-2.7-4-5.5-4-9.4C96,182.5,96,139.1,96,95.7z"/>
			<path class="st2" d="M82,157.7c0,25.6,0.1,51.2-0.1,76.8c0,3.1,0.8,4.8,3.7,6.3c11.3,5.9,16.7,18.4,13.6,30.6
				c-3,12.1-13.6,20.6-26,20.6c-13,0.1-23.7-8-27-20.4c-3.2-12.1,2.4-25,13.8-30.9c2.8-1.4,3.6-3.1,3.6-6
				c-0.1-51.5-0.1-103-0.1-154.4c0-6.5,3.7-10.6,9.4-10.5c5.3,0.1,8.9,4.1,8.9,9.9c0,22.5,0,45,0,67.5C82,150.7,82,154.2,82,157.7z
				 M72.7,256.2c-5,0.1-8.7,3.7-8.6,8.7c0,4.9,3.9,8.8,8.7,8.8c4.9,0,8.9-4,8.8-9C81.5,259.8,77.7,256.1,72.7,256.2z"/>
		</g>
	</g>
</g>
</svg>
