<?xml version="1.0" encoding="utf-8"?>
<!-- Generator: Adobe Illustrator 22.1.0, SVG Export Plug-In . SVG Version: 6.00 Build 0)  -->
<svg version="1.1" xmlns="http://www.w3.org/2000/svg" xmlns:xlink="http://www.w3.org/1999/xlink" x="0px" y="0px"
	 viewBox="0 0 425.2 425.2" style="enable-background:new 0 0 425.2 425.2;" xml:space="preserve">
<g id="icono-1">
	<g>
		<path style="fill:#6AA7EA;" d="M419,204.1c0,3.7,0,7.3,0,11c-2.4,0.9-3.7-1-5-2.3c-26-25.9-52-51.8-77.8-77.9
			c-3-3.1-5.8-6.5-9.5-8.7c-5-4.8-9.5-10.2-14.5-15c-24.6-23.9-54-37-88.2-39.3c-3.6-0.2-7.2-0.9-10.9-1.1
			c-18.2,1.4-36.3,3.5-53.1,10.9c-51.3,22.5-81.5,61.6-87.6,117.2c-4.9,44.7,9.4,83.8,41.4,116c3.6,3.7,7.3,7.3,10.9,11
			c3.4,4.3,7.6,7.9,11.5,11.7c24.8,24.8,49.7,49.6,74.4,74.5c1.7,1.7,5.2,3,3.1,6.7c-22.5,0.7-44.4-1.3-65.9-8.8
			c-24.2-8.4-46.4-20.2-66-36.6C44.1,342,20.5,302.4,10.4,254.8c-1.5-7.2-1.5-14.5-2-21.8c-0.1-2,0.6-4-0.5-5.9c0-9,0-18,0-27
			c0.9-6.4,0.6-12.9,1.2-19.3c1.7-17.4,7.2-33.8,14-49.8c10.4-24.4,25-46,43.8-64.5c31.1-30.7,68.2-50.4,111.5-57.2
			c17.3-2.7,34.8-1.7,52.3-1.4c25.4,0.4,48.8,7.8,71.6,18.3c17.8,8.2,34.1,18.9,48.6,32.1c30.6,27.6,51.6,61.2,62.5,101
			c3.7,13.4,5,27.1,5,41C418.5,201.5,418.1,202.9,419,204.1z"/>
		<path style="fill:#3973B7;" d="M214.1,418c-17.5-17.6-35-35.2-52.5-52.8c-12.5-12.6-25.1-25.3-37.6-37.9c3.1-2,5,0.7,7,2
			c16.9,11.7,35.3,19.8,55.6,23.5c8.7,1.6,17.4,2.4,26.3,2.7c18.8-0.4,37.1-3.3,54.5-10.7c42.1-18,70.1-48.8,82.6-92.9
			c10-35,6.5-69.2-9.3-102.1c-3.2-6.6-7.2-12.8-11.3-18.8c-1.2-1.7-3-3.4-1.5-5.8c1.9,0.8,3.1,2.5,4.5,3.9
			c27.4,27.4,54.7,54.7,82.1,82.1c1.4,1.4,3,2.6,4.4,4c0,2.7,0,5.3,0,8c-1,7.2-0.6,14.5-1.3,21.8c-1.8,18.6-7.7,36.1-15.2,53.1
			c-9.6,21.9-22.7,41.6-39.3,58.6c-31.6,32.5-69.7,53.2-114.6,60.7C237.4,419.1,225.7,419.6,214.1,418z"/>
		<path style="fill:#FEFEFE;" d="M419,204.1c-2.3-5.3-1.1-11.1-1.8-16.6c-3.7-28.9-13.2-55.7-28.1-80.8
			c-10.7-18.1-24.3-33.8-39.8-47.6C326.4,38.8,300,24.6,270.5,16c-22.7-6.6-45.9-9-69.4-7.7c-23.9,1.3-46.8,6.9-68.9,16.2
			C113.1,32.5,95.7,43.5,80,56.9c-18.6,15.8-33.8,34.6-45.8,55.9c-11,19.6-18.5,40.4-22.6,62.4c-1.3,6.8-2.4,13.7-2.5,20.7
			c0,1.5,0.4,3-1,4.2c0-63,0-125.9-0.1-188.9c0-3.2,0.3-4.2,4-4.2c134.4,0.1,268.8,0.1,403.2,0c3.7,0,4,1.1,4,4.2
			C419,75.5,419,139.8,419,204.1z"/>
		<path style="fill:#FEFEFE;" d="M214.1,418c27.1,1.2,52.9-4.7,77.8-14.9c21.9-9,41.5-21.6,59.2-37.5c25.2-22.6,43.2-49.8,55-81.4
			c7-18.9,11.3-38.3,11.9-58.4c0-1-0.1-2,1-2.6c0,64,0,128,0.1,192c0,3.4-0.7,4.1-4.1,4.1c-134.3-0.1-268.7-0.1-403,0
			c-3.4,0-4.1-0.7-4.1-4.1C8,352.4,8,289.8,8,227.1c1,6.8,1.9,13.6,3,20.4c4,25.2,12.6,48.8,25.7,70.6c9.8,16.3,21.2,31.3,35.2,44.3
			c13.2,12.2,27.5,22.8,43.4,31.4c17.7,9.5,36.3,16.2,55.9,20.5C185.3,417.4,199.6,418.8,214.1,418z"/>
		<path style="fill:#FE9900;" d="M213,356.9c-19,0.3-37.2-3.4-54.7-10.7c-11.8-4.9-22.8-11-32.8-19c-0.3-0.2-1,0-1.4,0
			c-22.3-19.7-39.3-42.9-48.3-71.6c-5.9-18.9-7.2-38.4-5.4-57.7c2.6-28.3,13.3-54.1,31.6-76c20.8-25,47.1-41.6,79-48.8
			c10.6-2.4,21.3-3.6,32.1-3.8c1.2,1,1.9,2.4,1.9,3.9c0,7.6,0.9,15.2-0.5,22.7c-1,2.3-3.1,3.4-5.2,4.4
			c-11.5,5.6-17.6,14.6-17.5,27.7c0.2,12.6,6.3,21.3,17.5,26.7c2.3,1.1,4.5,2.3,5.3,4.9c0.7,2.1,0.5,4.3,0.5,6.5
			c0,60.8,0,121.6,0,182.4C215,351.4,215.6,354.6,213,356.9z"/>
		<path style="fill:#E57500;" d="M213,96.9c0-9.2,0-18.4,0-27.6c18.8,0.5,37.1,3.6,54.8,10.7c21.5,8.7,39.2,22.2,54.6,39.1
			c1.9,2,2.9,4.8,5.5,6.2c3.5,6.6,8.2,12.4,11.8,19c6.5,12.1,11.2,24.8,14.3,38.1c3.1,13.3,3.6,26.8,2.9,40.3
			c-1.2,22.3-7.6,43.2-18.6,62.6c-6.5,11.4-14.4,21.9-23.9,31c-20.4,19.4-44.1,32.6-72,38c-9.7,1.8-19.4,3.4-29.3,2.8
			c0-66.2,0-132.4,0-198.6c0.1-0.2,0.3-0.4,0.4-0.6c1.7-1.1,3.6-0.5,5.4-0.5c11.9,0.2,21.8-4,27.7-14.6c5.7-10.1,5.8-20.8-0.4-30.9
			c-5.7-9.4-14.6-13.8-25.6-13.8c-2.2,0-4.3,0.7-6.5,0C213.6,97.7,213.2,97.4,213,96.9z"/>
		<path style="fill:#BF6200;" d="M183,286.4c1.6,12.2-10.9,24.1-24.2,24c-10.9-0.1-23.4-10.1-23.3-23.2
			c0.2-16.3,10.3-24.5,24.1-24.8C171.5,262,183.6,270.8,183,286.4z"/>
		<path style="fill:#BF6200;" d="M122.2,201.1c-12.4,0-21.3-9.2-21.2-22c0.1-12.1,9.3-21,21.8-21c12.4,0,21.3,9.2,21.2,22
			C143.9,192.2,134.7,201.1,122.2,201.1z"/>
		<path style="fill:#BF6200;" d="M213,158.3c-7.4-3-14.1-6.8-18.6-14c-9-14.3-5-37.8,14-45.4c1.5-0.6,3-1.3,4.6-1.9
			c0,0,0.1,0.4,0.1,0.4c2,1.7,2,4.1,2,6.4c0,15.9,0,31.9,0,47.8c0,2.3,0,4.7-2,6.4L213,158.3z"/>
		<path style="fill:#BF6200;" d="M185.6,242.1c-10.8,0-16.7-6.2-16.6-17.6c0-9.6,7.1-16.5,16.7-16.4c10,0.1,17.4,7.6,17.3,17.8
			C202.9,235.5,195.8,242.1,185.6,242.1z"/>
		<path style="fill:#994C00;" d="M234,286.6c0-15.5,11.9-27.5,27.3-27.5c15.1,0,27.6,10.7,27.4,27.3c-0.1,15.6-9.9,26.6-26.6,27.3
			C246.4,314.4,234.4,303,234,286.6z"/>
		<path style="fill:#994C00;" d="M213,157.9c0-20.2,0-40.4,0-60.7c14.5-4.5,30,3.9,35.3,14.5c5.8,11.6,5.9,23.3-1.7,33.9
			C238.5,157.1,226.9,161.2,213,157.9z"/>
		<path style="fill:#994C00;" d="M288,204.2c-1.6-11.1,10.4-21.3,21-21.2c12,0.1,21,9.4,21,21.9c0,11.9-9.4,21.2-21.2,21.2
			C297.4,226.1,286.2,215,288,204.2z"/>
	</g>
</g>
<g id="icono-2">
	<g>
		<path style="fill:#E84636;" d="M7.1,226.6c0-9,0-18,0-27c0.9-8.4,0.7-16.9,1.7-25.2c1.9-16,7.2-31.1,13.7-45.7
			c9.6-21.6,22.6-41,38.9-58.2C91.5,38.3,128.1,18,171.1,9.2c8.5-1.7,17.2-1.7,25.8-1.9c18.6-0.5,37.4-1.2,55.8,2
			c34.7,6,65.4,21.1,92.4,43.6c24.3,20.2,43.4,44.5,56.4,73.4c7,15.5,12.8,31.4,14.8,48.5c0.1,0.9,0.1,1.7-0.3,2.4
			c-3.1,2.5-4.9-0.1-6.7-1.8c-9.7-9.6-19.5-19.2-29-28.9c-6.7-6.9-14-13.3-20.3-20.6c-10.7-10.1-21-20.6-31.2-31.2
			c-8-7.3-15.4-15.2-23.2-22.8c-3.7-3.6-4.3-3.5-5.6,1.4c-3.8,14.3-7.7,28.6-11.6,42.9c-0.6,2.1-1,4.2-2.7,5.8
			c-2.2,1.3-4.2,0.5-6.1-0.6c-14.5-8.4-29.4-16.4-44-24.6c-4.8-2.7-5.3-2.8-8.3,1.9c-11.5,17.9-22.7,36-34,54.1
			c-14.9,23.9-29.9,47.7-44.8,71.5c-9.4,15.1-19,30.1-28.3,45.3c-1.1,1.7-2.3,3.3-3.5,4.8c-7.3,11.3-16.1,21.5-24,32.4
			c-2.8,4-6.9,7.2-8.1,12.2c3.2,4.1,7.2,7.5,10.4,11.6c4.4,3.7,8.6,7.6,12.2,12.1c11.4,9.9,21.5,21.1,32.3,31.7
			c11.4,11.1,22.6,22.5,33.8,33.8c1.9,1.9,4.6,3.7,2.7,7.1c-2,1.8-4.3,1.2-6.6,0.7c-32.1-7-61.1-20.4-86.8-41
			c-24.4-19.5-43.2-43.3-57-71.1c-11.5-23.4-18.7-48-18.1-74.5C7.6,228.5,7.9,227.5,7.1,226.6z"/>
		<path style="fill:#A51004;" d="M361.3,124.6c14.3,14.2,28.6,28.4,42.9,42.6c3.5,3.5,7.2,7,10.7,10.4c3.5,4.6,1.7,10.1,2.6,15.2
			c0.6,3.5-0.5,7.2,0.6,10.8c0,6.3,0,12.7,0,19c-0.9,9.1-0.8,18.2-1.7,27.2c-1.5,15.6-6.6,30.2-12.7,44.5
			c-10.8,25.6-26.2,48.3-46.2,67.5c-28.1,27-61.1,45.2-99.3,53.7c-9,2-18.2,2.3-27.2,2.5c-16.8,0.3-33.6,0.8-50.4-0.8
			c-2-0.2-4.2,0.1-4.5-2.7c-19.9-20-39.8-40-59.7-60c-3.5-3.5-6.9-7.1-10.4-10.7c0.1-0.2,0.1-0.4,0.2-0.7c13.9-12.4,28.9-23.2,44-34
			c13-9,26.6-17,39.9-25.4c25.1-15.9,50.5-31.5,75.7-47.3c19.8-12.5,39.7-24.8,59.6-37.4c5.9-3.7,6-3.9,2.7-10
			c-7.4-13.4-14.9-26.7-22.3-40.1c-1.6-2.8-4.1-5.5-1.9-9.2c2.4-2.8,5.9-3,9-3.9c13.7-3.7,27.4-7.2,41-11.1
			C356.4,124,358.8,123.9,361.3,124.6z"/>
		<path style="fill:#FEFEFE;" d="M418.1,203.6c-0.3-0.3-0.9-0.7-0.9-1c0.4-8.4-1.2-16.7-2.3-25c-4-22.1-11.1-43.1-21.8-62.8
			c-6.7-12.2-14.4-23.6-23.4-34.2c-15.3-18.1-33-33.4-53.5-45.3c-19.4-11.3-40.1-19.2-62.1-23.7c-16.7-3.5-33.6-4.6-50.6-3.9
			c-22.7,0.9-44.5,5.6-65.8,13.7c-17.3,6.6-33.4,15.5-48.1,26.6c-15.9,12-29.9,26-41.8,42.2c-14.1,19.2-24.9,40-31.7,62.8
			c-4.3,14.3-7.5,28.7-7.9,43.7c0,1,0.6,2.4-1,3c0-63,0-125.9-0.1-188.9c0-3.2,0.3-4.2,4-4.2c134.4,0.1,268.8,0.1,403.2,0
			c3.7,0,4,1.1,4,4.2C418.1,75,418.1,139.3,418.1,203.6z"/>
		<path style="fill:#FEFEFE;" d="M176.1,414.4c2.4,2.1,5.8,1.7,8.4,1.9c16.6,1.5,33.3,1.9,50,0.4c20.3-1.9,39.5-7.1,58.3-15
			c15.9-6.7,30.6-15.1,44.2-25.6c8.1-6.2,16.1-12.6,23-20.1c12.8-14,24.2-28.9,33.3-45.8c10.5-19.5,17.5-40.1,21.6-61.7
			c1.3-7.2,2.6-14.6,2.3-22c-0.1-1.3-0.9-3,0.9-4c0,64,0,128,0.1,192c0,3.4-0.7,4.1-4.1,4.1c-134.3-0.1-268.7-0.1-403,0
			c-3.4,0-4.1-0.7-4.1-4.1c0.1-62.7,0.1-125.3,0.1-188c2.3,4.2,1.1,8.9,1.8,13.3c2.6,18.8,7.8,36.8,15.1,54.4
			c7.4,18,17.8,34.2,29.8,49.2c13.8,17.2,30.4,31.3,49.1,43.1c21.1,13.4,44.1,22.1,68.4,27.6C172.9,414.6,174.5,414.6,176.1,414.4z"
			/>
		<path style="fill:#FEFEFE;" d="M115.1,273.5c10.7-17.1,21.3-34.2,32-51.3c16.3-26.2,32.7-52.4,49.1-78.6
			c10.7-17.1,21.4-34.2,32-51.3c1.2-1.9,2.4-1.1,3.6-0.4c10.6,5.8,21.1,11.6,31.6,17.5c7.2,4,14.4,8.1,21.7,12.2
			c5.6-1.3,9,2.4,12.6,5.5c0.2,0.5,0.3,1,0.2,1.5c-1.2,2.4-3.2,4.2-5,6.1c-50.7,50.7-101.2,101.4-152,152c-2.2,2.2-4.1,4.9-7.6,5.3
			C125.1,287.7,118.8,281.9,115.1,273.5z"/>
		<path style="fill:#FEE570;" d="M297,128.5c0.1-0.3,0.1-0.6,0-0.9c-1.1-2.3,0.3-3.8,1.7-5.2c8.7-9.1,17.9-17.8,26.7-26.8
			c1.4-1.4,2.9-2.2,4.8-2.1c10.3,10.4,20.7,20.7,31,31.1c-9.7,4-20.1,5.8-30.1,8.8c-9,2.6-18,4.8-27.1,7.2
			C299.7,139.7,296,133.6,297,128.5z"/>
		<path style="fill:#FEF4CA;" d="M330.2,93.5c-9.4,9.6-18.8,19.1-28.2,28.7c-1.7,1.8-3.4,3.6-5.1,5.5c-4.4-1.2-8-4.1-12-6.1
			c1.9-10.3,5.1-20.2,7.8-30.3c2.4-9.1,4.8-18.2,7.2-27.2C310.3,74.1,320.2,83.8,330.2,93.5z"/>
		<path style="fill:#C7C5CB;" d="M115.1,273.5c6,5.7,12,11.5,18,17.2c0.4,0.4,0.5,0.8,0.6,1.3c-0.3,1.9-1.5,3.3-2.8,4.6
			c-10.3,10.3-20.6,20.6-30.9,30.9c-1.7,1.7-3.5,3.7-6.4,2.3c-0.2-0.2-0.6-0.5-0.6-0.8c0.3-7.7-4.8-9.1-10.9-9.4
			c-0.1-2.7,0.3-3.3,5.1-9.5C96.5,297.9,105.8,285.7,115.1,273.5z"/>
		<path style="fill:#E22500;" d="M82,319.5c3.7-1.7,7.8-1.6,12.3-3c0,4.6,0,8.8,0,13.1c0.5,0.5,0.5,1.1,0.3,1.7
			c-0.2,0.1-0.3,0.3-0.5,0.4C89.8,327.9,85.6,324,82,319.5z"/>
		<path style="fill:#E22500;" d="M106,343.7c-4-4-8-8-12-12c0,0,0.1-0.2,0.1-0.2c3.6-3,7.8-2.4,11.8-1.8c3.1,0.5,4.2,2.9,3.9,5.9
			c-0.3,3-1.5,5.7-3.8,7.9L106,343.7z"/>
		<path style="fill:#FEF4CA;" d="M133.2,291.5c0-0.2-0.1-0.5-0.1-0.7c1.7-1.6,3.5-3.1,5.1-4.7c51.1-51.1,102.2-102.2,153.3-153.3
			c1.6-1.6,3-3.7,5.5-4.2c2.4,4,4.8,8.1,7.2,12.1c9.6,17.1,19.1,34.2,28.7,51.4c1.3,2.3,2,4-1.3,5.9c-19,11.6-37.7,23.5-56.5,35.2
			c-25.3,15.8-50.7,31.6-76.1,47.4c-15.9,10-31.8,20-47.7,30c-7.5-4-12.4-10.6-17.9-16.7C132.9,293.3,133.1,292.3,133.2,291.5z"/>
		<path style="fill:#8A8891;" d="M133.2,291.5c6.1,6.3,13.3,11.6,18.1,19.1c-13.4,10.2-26.9,20.4-40.3,30.7
			c-1.5,1.1-2.8,2.2-4.8,2.3c0.3-2.1,0.3-4.3,1-6.2c2-4.9,0.1-6.2-4.6-5.7c-2.8,0.3-5.6,0-8.5,0c0-0.6,0.1-1.3,0.1-1.9
			c11.3-11.1,22.5-22.3,33.8-33.4C129.7,294.5,131.5,293,133.2,291.5z"/>
	</g>
</g>
<g id="icono-3">
	<g>
		<path style="fill:#6FCEBC;" d="M8,227.1c0-9,0-18,0-27c0.9-6.4,0.6-12.9,1.2-19.3c1.7-17.4,7.2-33.8,14-49.8
			c10.4-24.4,25-46,43.8-64.5c31.1-30.7,68.2-50.4,111.5-57.2c17.3-2.7,34.8-1.7,52.3-1.4c25.4,0.4,48.8,7.8,71.6,18.3
			c17.8,8.2,34.1,18.9,48.6,32.1c30.6,27.6,51.6,61.2,62.5,101c3.7,13.4,5,27.1,5,41c0,1.3-0.4,2.7,0.5,3.9c0,5.7,0,11.3,0,17
			c-3.3,0.7-4.7-2-6.5-3.8c-16.6-16.4-33.1-32.9-49.5-49.5c-28.5-28.6-57.2-56.9-85.4-85.7c-1-1.1-2.1-2.1-3.4-2.9
			c-1.9-1.8-3.6-3.8-5.4-5.6c-10.3-9.1-22.6-9.9-35.3-8.3c-23.1,2.9-43.3,13.1-62.3,25.6c-39,25.5-71,58.2-95.2,98.1
			c-9.6,15.9-17.5,32.6-20.3,51.2c-1.4,9.2-1.8,18.6,1.1,27.7c1.3,4,3.7,7.4,6.1,10.8c1.6,2,3.5,3.8,5.3,5.6
			c8.6,8.8,17.5,17.4,26.2,26.1c18.2,18.3,36.2,36.9,54.9,54.7c16.2,15.4,31.8,31.3,47.7,47c1.6,1.6,4.8,3,2.8,6.4
			c-23.8,0.5-46.2-5.7-67.8-14.8C106,392.9,83.3,377.3,64,357c-28.3-29.7-46.5-64.7-54-105.2c-1.1-6.2-1.2-12.6-1.5-18.9
			C8.4,231,9.1,229,8,227.1z"/>
		<path style="fill:#09AF8F;" d="M274.9,78.2c1.9,0.8,3.1,2.5,4.5,3.9c45,45,90.1,90.1,135.1,135.1c1.4,1.4,3,2.6,4.4,4
			c0,0.7,0,1.3,0,2c-0.9,7.1-0.6,14.2-1.2,21.3c-1.7,18.3-7.4,35.5-14.6,52.2c-9.8,22.7-23.3,43.1-40.6,60.8
			c-31.4,31.9-69.1,52.6-113.4,59.8c-16.1,2.6-32.7,2.2-49.1,0.8c-15.8-15.9-31.4-32-47.8-47.3c-17.3-16.3-33.8-33.5-50.6-50.3
			C90.1,308.7,78.6,297,67,285.3c0.7-0.9,1.8-1.2,2.7-0.8c6.6,2.8,13.7,3,20.5,5c0.8,0.6,1.5,1.4,1.9,2.3
			c4.8,12.7,15.6,18.7,26.9,23.9c20.2,9.3,41.7,13.5,63.6,16.6c14,2,28.3,1.1,42.3,3.2c14.4-2,28.9-1.1,43.3-3.1
			c22-3.2,43.7-7.4,64.1-16.7c7.6-3.5,14.6-8,20.4-14.1c5-5.3,6.6-11.4,5.1-18.4c-2.7-13.3-10.8-23-20.6-31.7
			c-4.7-4.2-9.9-7.8-15.3-11.2c-12-7.5-24.9-13.1-38.6-17c-13-3.8-26.1-6.3-39.6-7.6c-6-0.8-12.1-0.1-18.1-1.1
			c-0.8-0.1-1.6-0.3-2.3-0.9c-1.7-3.6,1.3-5.6,3.1-7.7c8-9.2,15.5-18.8,22.3-28.9c13.8-20.5,25.3-42,29-66.8
			c1.3-9.2,1.2-18.3-2.4-27C274.5,81.7,273.5,80,274.9,78.2z"/>
		<path style="fill:#FEFEFE;" d="M419,204.1c-2.3-5.3-1.1-11.1-1.8-16.6c-3.7-28.9-13.2-55.7-28.1-80.8
			c-10.7-18.1-24.3-33.8-39.8-47.6C326.4,38.8,300,24.6,270.5,16c-22.7-6.6-45.9-9-69.4-7.7c-23.9,1.3-46.8,6.9-68.9,16.2
			C113.1,32.5,95.7,43.5,80,56.9c-18.6,15.8-33.8,34.6-45.8,55.9c-11,19.6-18.5,40.4-22.6,62.4c-1.3,6.8-2.4,13.7-2.5,20.7
			c0,1.5,0.4,3-1,4.2c0-63,0-125.9-0.1-188.9c0-3.2,0.3-4.2,4-4.2c134.4,0.1,268.8,0.1,403.2,0c3.7,0,4,1.1,4,4.2
			C419,75.5,419,139.8,419,204.1z"/>
		<path style="fill:#FEFEFE;" d="M200.1,418c28.7,1.5,56.8-1.6,83.9-11.7c21.5-8.1,41.2-19.3,59.2-33.6
			c22.9-18.3,40.5-40.8,53.7-66.7c9.6-18.7,16.2-38.6,19.2-59.5c1-6.9,2.2-13.7,2-20.7c0-1-0.1-2,1-2.6c0,64,0,128,0.1,192
			c0,3.4-0.7,4.1-4.1,4.1c-134.3-0.1-268.7-0.1-403,0c-3.4,0-4.1-0.7-4.1-4.1C8,352.4,8,289.8,8,227.1c1,6.6,1.9,13.3,3,19.9
			c3.9,25.2,12.5,48.8,25.5,70.7c9.9,16.8,21.8,32.2,36.2,45.4c13,11.9,27.1,22.3,42.6,30.7c17.8,9.6,36.6,16.3,56.3,20.6
			C181,416.4,190.4,417.9,200.1,418z"/>
		<path style="fill:#FE9900;" d="M61.9,280.2c-11.5-13.1-10.5-28.6-7.4-43.8c5.6-27.2,19.9-50.3,36-72.4
			c12.1-16.5,26.2-31.2,41.2-44.9c25.2-22.9,52.8-42.3,85.9-52.2c13-3.9,26.3-5.9,39.7-1.7c4.8,1.5,9.7,3.3,12.7,7.8
			c-0.3,1.4-1.4,2.2-2.3,3.2c-10.3,10.2-20.5,20.5-30.7,30.7c-5.2,5.1-6.4,5.2-12.2,0.6c-5-3.9-9.9-7.9-15.9-10.2
			c-3.9-1.5-8.7-3.2-11.8-0.2c-3.2,3.1-1.5,7.8,0,11.8c2.2,5.8,5.9,10.8,9.9,15.5c5.1,6,5,7.5-0.4,13c-7.9,7.9-15.7,15.8-23.7,23.7
			c-1.4,1.4-2.7,2.9-4.7,3.7c-0.5,0.1-1,0.1-1.5,0c-4.5-2.4-7.5-6.5-11.5-9.5c-6.7-4.8-13.3-9.5-21.4-11.6
			c-9.1-2.3-12.8,1.3-10.7,10.5c1.3,5.6,4.3,10.5,7.3,15.3c3.2,5.1,7.2,9.6,11,14.2c2.7,3.3,2.8,6.1-0.3,9.2
			c-8.8,8.8-17.7,17.7-26.5,26.5c-2.8,2.7-5.3,2.9-8.2,0.2c-3.8-3.6-8-6.5-12.4-9.2c-3.1-1.9-6.4-3.6-10.1-4.2
			c-7.2-1.1-10.3,2.2-8.4,9.2c1.6,5.7,4.4,10.8,8,15.4c1.7,2.2,3.5,4.5,5.3,6.6c2.2,2.5,2.4,5.1,0.1,7.6
			c-11.1,11.5-22.5,22.8-33.9,34C64.2,279.6,63.2,280.2,61.9,280.2z"/>
		<path style="fill:#E57500;" d="M61.9,280.2c11.5-11.6,22.8-23.3,34.4-34.8c3-3,3.9-4.7,0.4-8.3c-6.3-6.5-11.2-14.1-13.3-23.1
			c-1.5-6.5,1.2-9.8,7.9-10c5.3-0.1,9.7,2.3,13.9,4.9c4.6,2.9,9.3,5.9,13,10c1.7,1.9,2.8,1.5,4.4-0.1c9.4-9.5,18.8-18.9,28.3-28.3
			c1.8-1.8,1.8-3,0.1-5c-6.9-7.9-13.5-16-17.8-25.7c-1.7-3.7-2.6-7.5-2.3-11.6c0.3-5,2.5-7.2,7.6-7.2c6.3,0.1,11.9,2.6,17.2,5.8
			c7.9,4.7,15.4,9.8,21.2,17.2c0.8,2.6-1.3,4-2.7,5.5c-5,5.1-10,10.2-15.1,15.2c-2.4,2.3-2.7,4.3,0,6.6c7.4,6.2,14.8,12.4,23.7,16.4
			c3.1,1.4,6.2,2.4,9.6,2.6c5.5,0.3,8.1-2.3,7.7-7.8c-0.4-4.7-2.3-9-4.5-13.1c-4-7.2-8.9-13.6-14.5-19.5c-1.5-1.6-3.8-2.9-3-5.8
			c9.3-9.5,18.7-19,28-28.5c4.7-4.8,4.8-4.8,0.1-9.9c-4.8-5.2-8.6-10.9-11.1-17.6c-0.1-0.3-0.3-0.6-0.4-0.9
			c-0.7-3.9-2.1-8.4,0.7-11.5c3.1-3.3,7.9-2,11.8-0.9c8.2,2.4,14.6,7.8,20.9,13.1c2.7,2.3,4,1.6,6.1-0.5
			c10.3-10.4,20.7-20.8,31.1-31.1c1.4-1.4,2.6-3.1,4.8-3.3c2.1,1.2,3.4,3.3,4.8,5.2c5.1,9.5,6.1,19.8,4.9,30.1
			c-1.3,11-4.5,21.6-8.8,31.8c-9.4,22.1-22.4,41.9-37.8,60.3c-3.5,4.1-6.7,8.4-10.1,12.6c-1.6,2.1-4,2-6.3,2c-3.1,0-6.2,0.3-9.2,0.7
			c-13.9,0.8-27.4,3.9-40.8,7.6c-8.8,2.4-17.2,6-25.4,10c-2.5,1.2-4.9,2.9-7.8,2.9c-2.4-0.2-3.7-2-5-3.7c-1.6-2-3-4-4.8-5.8
			c-2.1-2.2-4.1-2.5-6.3-0.2c-4,4-8,8-12,12c-2,2-1.6,3.6,0.2,5.6c2,2.1,5.2,3.2,5.9,6.5c-0.1,2-1.4,3.3-2.7,4.6
			c-8.6,9-15.4,19-17.1,31.7c-0.2,1.3-0.5,2.6-1.8,3.4c-8.1,0.7-15.5-2.1-22.9-4.9C65.3,283.6,63.6,281.9,61.9,280.2z"/>
		<path style="fill:#FE8800;" d="M244,214.3c13.8,0.5,27.1,3.2,40.1,7.7c2.3,2.5,1.6,5.6,1.4,8.5c-1.1,12.9,0.7,25.5,4.9,37.8
			c1.1,3.3,3,6.3,5.3,9c4.6,5.3,10.3,5.2,14.8-0.4c3.3-4.1,5.3-8.8,6.6-13.8c1.6-6.1,3-12.3,3.1-18.6c0-2,0-4.1,1.8-5.4
			c10.2,4.9,18.5,12.3,25.8,20.8c5.7,6.7,10,14.3,11.7,23.2c1.4,7.2,0.1,13.6-5,19.1c-13.4,14.3-31.3,20.1-49.4,24.9
			c-16.4,4.4-33.1,7.1-50.1,8.3c-5.4,0.4-10.9,0.9-16.3,0.7c-4.7-0.2-9.1,1.3-13.7,1c-1.8-1.6-2-3.7-2-5.9c0-16.7,0-33.5,0-50.2
			c0-1.7,0.1-3.3,0.9-4.8c0.4-0.9,1.1-1.7,2-2.1c7.9-3.6,11.1-10.6,13.3-18.3c3.1-11.1,4.4-22.4,3.2-33.9
			C242.1,219.1,241.8,216.4,244,214.3z"/>
		<path style="fill:#FEA920;" d="M225,275.1c0,20.6,0,41.2,0,61.8c-13.2-1.5-26.6-0.9-39.9-2.6c-18.9-2.4-37.3-5.9-55.3-12.2
			c-10.7-3.7-20.8-8.6-29.7-15.6c-5.3-4.1-8.6-9.8-10.2-16.4c0.2-13.7,7-24.4,15.7-34.2c1.8-2,3.6-3.9,5.4-5.8
			c3.3-5.5,8.8-8.3,14-11.4c1.2-0.7,2.6-0.7,3.6,0.5c1.9,4.4,1.4,9.1,2.2,13.7c1.2,7.3,3,14.4,6.7,20.8c5.5,9.7,14,9.8,19.4-0.1
			c7.6-13.9,8.9-29.1,7.9-44.6c-0.2-2.5-0.9-5,1.1-7.1c13.3-4.7,26.9-7.3,41-7.9c1.3,2,0.9,4.2,0.9,6.3c0.1,10-0.6,20,1.7,29.8
			c1.1,4.7,2.7,9.3,4.6,13.7c2.1,4.9,5.9,8,10.3,10.4C224.7,274.6,224.8,274.9,225,275.1z"/>
		<path style="fill:#E57500;" d="M322.1,239c0,13.6-1.7,26.9-9.7,38.5c-5.2,7.7-13.4,7.8-18.9,0.3c-6.3-8.6-7.9-18.8-9.5-29
			c-1.4-9-0.2-17.9,0.1-26.8C297.6,225.7,310.5,230.8,322.1,239z"/>
		<path style="fill:#E57500;" d="M244,214.3c1.1,14.2,0.9,28.3-3,42.2c-1.4,5-3.7,9.6-6.8,13.7c-2.3,3-5.1,5.3-9.2,4.9c0,0,0,0,0,0
			c-1.9-1.8-2-4.1-2-6.5c0-16.3,0-32.6,0-49c0-2.4,0-4.7,2-6.4C231.4,213.1,237.7,212.4,244,214.3z"/>
		<path style="fill:#FE8800;" d="M225,213.3c0,20.6,0,41.2,0,61.8c-7.4,0.1-10.2-5.5-12.7-10.9c-5.3-11.5-6.9-23.8-6.2-36.3
			c0.2-4.6-0.9-9.3,0.9-13.8c5.3-1.8,10.8-0.7,16.2-1.1C223.7,213.1,224.4,213.2,225,213.3z"/>
		<path style="fill:#BF6200;" d="M178,164.1c6.9,7.6,13.9,15.1,18.9,24.2c2.3,4.1,4,8.4,4.9,12.9c1.4,7-2.3,11.1-9.4,10.8
			c-5.5-0.2-10.2-2.8-14.9-5.3c-7.8-4.2-14.3-10.1-21-15.7c-2.5-2.1-2.3-3.7,0-6c7-6.9,13.7-14,20.6-21
			C177.3,164.1,177.7,164.1,178,164.1z"/>
		<path style="fill:#FE8800;" d="M165.9,222.1c1.9,13.3,1.3,26.4-2.1,39.4c-1.8,6.7-4,13.4-9.2,18.5c-5,4.8-12.4,4.1-16.5-1.5
			c-5.3-7.5-7.8-16.1-9.2-25c-0.7-4.7-1.4-9.5-1.1-14.3c0-3.5,2.8-3.4,5-4c7.7-3.3,15.4-6.7,23.1-10
			C159.2,223.8,162.4,222.4,165.9,222.1z"/>
		<path style="fill:#BF6200;" d="M249,140.1c0,7.9-1.1,9.1-7.5,9c-9.1-0.1-15.9-5.4-22.5-10.6c-8.7-7.1-8.5-7.4-0.4-15.5
			c3.3-3.3,6.6-6.5,9.8-9.9c1.8-1.9,3.2-2,4.9,0c6,7.1,12,14.2,15,23.2C249,137.9,249,139.8,249,140.1z"/>
		<path style="fill:#BF6200;" d="M133,235.1c-1.7,1.3-3.3,2.6-5,4c-5.1,2-9,5.6-13.3,8.9c-1.2,0.9-2,2.2-3.6,2.3
			c-11.6-8.1-11.6-8.1-1.9-17.7c2.7-2.7,5.5-5.3,8-8.1c2.3-2.5,4.3-2.8,6.5-0.1C126.8,227.9,129.9,231.5,133,235.1z"/>
	</g>
</g>
<g id="icono-4">
	<g>
		<path style="fill:#FF9A00;" d="M417.2,212.3c0,113.1-91.7,204.8-204.8,204.8C99.3,417.1,7.6,325.4,7.6,212.3
			C7.6,99.2,99.3,7.5,212.4,7.5C325.5,7.5,417.2,99.2,417.2,212.3L417.2,212.3z M417.2,212.3"/>
		<path style="fill:#E67500;" d="M417.2,212.3c0-14.6-1.5-28.8-4.4-42.5L315,72.3c-9-9-23.8-8.7-32.4,0.8l-57.7,63.4l-3,0.8
			c-32.4,8.9-58.1,20-76.4,32.8c-16.1,11.3-26.5,23.9-31.1,37.7c-2.7,8.1-3.1,15.9-2,23H77.8v34.5c0,29,12.2,55.1,31.7,73.6
			l76.5,76.5c8.6,1.1,17.4,1.7,26.3,1.7C325.5,417.1,417.2,325.4,417.2,212.3L417.2,212.3z M417.2,212.3"/>
		<path style="fill:#802897;" d="M222.4,138.8l26,26l2.4-2.4l63.4-57.8c9.4-8.6,9.8-23.4,0.8-32.4c-9-9-23.8-8.7-32.4,0.8
			l-57.7,63.4L222.4,138.8z M222.4,138.8"/>
		<path style="fill:#451152;" d="M314.3,104.7l-63.4,57.8l-2.4,2.4l-13-13L315,72.3l0,0C324,81.3,323.7,96.1,314.3,104.7
			L314.3,104.7z M314.3,104.7"/>
		<path style="fill:#FFFFFF;" d="M114.4,207.7c-7.2,21.8,1.9,41.2,12.9,52.2c0,0,0,0,0,0c0,0,0,0,0,0c0,0,0,0,0,0
			c11,11,30.5,20.1,52.3,12.9c13.8-4.6,26.4-15,37.7-31.1c12.8-18.2,23.8-43.9,32.7-76.3l0.8-3l-26-26l-3,0.8
			c-32.4,8.9-58.1,20-76.4,32.8C129.4,181.3,119,194,114.4,207.7L114.4,207.7z M177.1,262.4c-9.5,3.2-18.6,2.3-26.2-0.7
			c16.4-6.3,45.1-27.4,87.2-93.4C218.7,235.6,194.3,256.6,177.1,262.4L177.1,262.4z M231.3,159.3c-19.9,31.6-38.5,55.9-55.4,72.2
			c-17.1,16.5-28.1,20.5-33,21.3c-4.8,0.9-6.8-0.6-7.3-1.1c0,0,0,0,0,0c-0.5-0.5-1.9-2.4-1.1-7.3c0.9-5,4.8-15.9,21.3-33
			c16.3-16.9,40.6-35.6,72.3-55.5L231.3,159.3z M218.9,149.3c-66,42.1-87.1,70.8-93.3,87.2c-2.9-7.7-3.9-16.7-0.7-26.2
			C130.6,193.1,151.6,168.7,218.9,149.3L218.9,149.3z M218.9,149.3"/>
		<path style="fill:#FFE670;" d="M217.3,241.8c12.8-18.2,23.8-43.9,32.7-76.3l0.8-3l-13-13l-8.2,8.2l1.6,1.6
			c-19.9,31.6-38.5,55.9-55.4,72.2c-17.1,16.5-28.1,20.5-33,21.3c-4.8,0.9-6.8-0.6-7.3-1.1l0,0l-8.2,8.2c11,11,30.5,20.1,52.3,12.9
			C193.4,268.3,206,257.8,217.3,241.8L217.3,241.8z M177.1,262.4c-9.5,3.2-18.6,2.3-26.2-0.7c16.4-6.3,45.1-27.4,87.2-93.4
			C218.7,235.6,194.3,256.6,177.1,262.4L177.1,262.4z M177.1,262.4"/>
		<path style="fill:#B6EFAB;" d="M322.4,230.7v34.5c0,55.9-45.4,101.3-101.3,101.3h-42c-55.9,0-101.3-45.4-101.3-101.3v-34.5H322.4z
			 M322.4,230.7"/>
		<path style="fill:#83E46F;" d="M322.4,230.7v34.5c0,55.9-45.4,101.3-101.3,101.3h-21V230.7H322.4z M322.4,230.7"/>
	</g>
</g>
<g id="icono-5">
	<g>
		<path style="fill:#802897;" d="M417.2,212.3c0,113.1-91.7,204.8-204.8,204.8C99.3,417.1,7.6,325.4,7.6,212.3
			C7.6,99.2,99.3,7.5,212.4,7.5C325.5,7.5,417.2,99.2,417.2,212.3L417.2,212.3z M417.2,212.3"/>
		<path style="fill:#451152;" d="M417.2,212.3c0-5.1-0.2-10.1-0.6-15.1L306.4,86.9c-6.2-6.7-13.7-12.7-22.3-17.8
			c-20-11.9-45.5-18.5-71.7-18.5c-26.2,0-51.7,6.6-71.7,18.5c-21.3,12.7-35.5,30.4-41,51.2c-10.9,40.6,9.1,70.6,17.4,80.8L95.9,341
			L167,412c14.6,3.3,29.8,5.1,45.4,5.1C325.5,417.1,417.2,325.4,417.2,212.3L417.2,212.3z M417.2,212.3"/>
		<path style="fill:#FFDBA9;" d="M315.9,122.7C305.8,85,262.6,60,212.4,60C162.2,60,119,85,108.9,122.7
			c-12,44.8,18.3,75.4,18.3,75.4L107,331.5h210.9l-20.2-133.4C297.6,198.1,328,167.5,315.9,122.7L315.9,122.7z M315.9,122.7"/>
		<path style="fill:#FFC473;" d="M297.7,198.1l20.2,133.4H212.4V60c50.2,0,93.4,24.9,103.6,62.7
			C327.9,167.5,297.7,198.1,297.7,198.1L297.7,198.1z M297.7,198.1"/>
		<path style="fill:#FFAA20;" d="M328.9,341H95.9L117.1,201c-8.3-10.2-28.3-40.1-17.4-80.8c5.6-20.8,19.8-38.5,41-51.2
			c20-11.9,45.5-18.5,71.7-18.5c26.2,0,51.7,6.6,71.7,18.5c21.3,12.7,35.5,30.4,41,51.2c10.9,40.6-9.1,70.6-17.4,80.8L328.9,341z
			 M118,322h188.8l-19.3-127.2l3.3-3.4c1-1.1,26.3-27.5,15.9-66.3c-8.8-32.8-47.6-55.7-94.4-55.7c-46.8,0-85.6,22.9-94.4,55.7
			c-10.4,38.7,14.8,65.2,15.9,66.3l3.3,3.4l-0.7,4.7L118,322z M118,322"/>
		<path style="fill:#E67500;" d="M307.7,201c6.6-8.1,20.6-28.7,20.6-57.2c0-7.4-0.9-15.2-3.2-23.6c-5.6-20.8-19.8-38.5-41-51.2
			c-20-11.9-45.5-18.5-71.7-18.5v18.9c23.4,0,44.8,5.7,61.5,15.5c16.6,9.8,28.6,23.7,32.9,40.1c10.4,38.7-14.8,65.2-15.9,66.3
			l-3.3,3.4L306.8,322h-94.4V341h116.5L307.7,201z M307.7,201"/>
	</g>
</g>
<g id="icono-6">
	<g>
		<path style="fill:#F45BA1;" d="M8,227.1c0-9,0-18,0-27c0.9-8.4,0.7-16.9,1.7-25.2c1.8-15.3,6.9-29.8,12.9-43.9
			c8.1-19.1,19.1-36.6,32.6-52.4C70.2,60.8,87.9,45.9,108,34.1c20.1-11.8,41.7-20,64.6-24.4c8.7-1.7,17.5-1.6,26.3-1.9
			c16-0.5,32-0.5,47.9,1c17.7,1.7,34.4,7.5,50.7,14.5c27.8,12,51.5,29.8,71.6,52.3c24.3,27.3,40.2,59,47.6,94.9
			c1.7,8.1,1.5,16.5,1.9,24.8c0.1,3-0.6,6,0.5,8.9c0,6.3,0,12.7,0,19c-1.1,5.9,0,12-1.1,17.9c-1.1,2.7-2.9,1.6-4.5,0.7
			c-1.5-0.8-2.5-2.1-3.7-3.3c-19.6-19.5-39.1-39.2-58.7-58.6c-1.8-1.7-2.8-4.2-5.2-5.3c-6.1-6.6-13.3-11.9-20.7-16.8
			c-1.4-0.9-2.7-1.9-3.7-3.2c-1.4-2.9-3.5-5.2-6.1-7.1c-5.7-4.4-10.6-9.6-15.3-14.9c-1.2-1.3-2.5-2-4-2.8
			c-21.8-13.6-45.3-22.2-71.1-24.4c-4-0.3-7.9-0.9-11.9-1.2c-26.1,1.3-50.7,8-73.7,20.5c-7.4,4-7.5,3.8-6.7,12.5c0.1,1,0,2-0.4,2.9
			c-1.8,2.8-4.7,4.1-7.6,5.4c-12.3,5.9-24.3,12.2-34.8,21c-0.5,0.4-1,0.8-1.5,1.2c-6.6,5.8-6.5,5.7-2.7,13.7
			c1.8,3.8,4.6,7.4,3.7,12.1c-2.2,5.3-6.5,9.2-9.8,13.8C68.3,223,59.7,239.9,55.8,259c-1.4,6.5-2.7,13.3,3.5,18.5
			c1.2,3,4.1,4.3,6.2,6.3c42.4,42.3,84.7,84.7,127,127.1c2,2,5.7,3.6,3.3,7.6c-26.6,0.1-51.2-7.6-74.7-19.1
			c-15.9-7.8-30.4-17.8-43.8-29.4c-21.4-18.5-38-40.5-50.4-65.7C15.1,281,7.9,256.4,8.5,230C8.5,229,8.8,228,8,227.1z"/>
		<path style="fill:#FEFEFE;" d="M419,204.1c-1-0.3-1-1.2-1-2c-0.1-20.9-4.9-40.8-12-60.2c-7.3-20.1-17.6-38.4-30.9-55.2
			c-16.3-20.6-35.6-37.9-58.3-51c-19.5-11.3-40.4-19.2-62.7-23.7c-16.3-3.3-32.6-4.3-49.1-3.9c-22.9,0.7-44.9,5.6-66.3,13.6
			c-17.4,6.5-33.4,15.5-48.2,26.6c-21.6,16.2-39.4,36-53.4,59.2c-12.8,21.3-21.2,44.2-25.9,68.5c-1.3,6.7-2.4,13.6-2.3,20.5
			c0,1.2,0.7,2.7-1,3.5c0-63,0-125.9-0.1-188.9c0-3.2,0.3-4.2,4-4.2c134.4,0.1,268.8,0.1,403.2,0c3.7,0,4,1.1,4,4.2
			C419,75.5,419,139.8,419,204.1z"/>
		<path style="fill:#FEFEFE;" d="M416.8,242.1c1.3-6.3,0.3-12.8,2.2-19c0,64,0,128,0.1,192c0,3.4-0.7,4.1-4.1,4.1
			c-134.3-0.1-268.7-0.1-403,0c-3.4,0-4.1-0.7-4.1-4.1C8,352.4,8,289.8,8,227.1c2.3,4.2,1.2,8.9,1.8,13.3c2.6,19,7.9,37.1,15.2,54.8
			c7.4,17.9,18,34,29.9,49.1c10.5,13.2,23,24.5,36.6,34.5c24.4,18.1,51.8,29.6,81.4,36.1c7.6,1.7,15.5,2.1,23.2,3.1
			c1.2-2.1,3.3-2,5.3-2c4.8-0.1,9.7-0.1,14.5,0c26.1,0.6,50.9-5.1,74.9-14.8c21.8-8.8,41.4-21.3,58.8-37.1
			c33.7-30.5,54.6-68.2,63.5-112.7C413.6,248.1,412.9,244.1,416.8,242.1z"/>
		<path style="fill:#B52C77;" d="M416.8,242.1c-2,12.6-4.5,25.1-8.8,37.2c-8.3,23.5-20,44.9-35.8,64.3c-20.6,25.2-45.8,44-75.2,57.4
			c-16.5,7.5-34,12.3-52,15.2c-16.3,2.6-32.6,1.7-49,1.7c-1.5-1.6-2.9-3.2-4.4-4.7c-43.1-43.1-86.1-86.1-129.2-129.2
			c-1.5-1.5-2.9-3.2-4.4-4.7c0.6-1.7,2-2.2,3.5-2.2c12.5-0.2,22.7-6.7,33.3-12.3c6.6-3.5,13-7.4,19.6-10.9c1.1-0.6,2.2-0.7,3.4-0.8
			c1.6,0.1,3,0.9,3.7,2.2c1.9,3.6,4.5,3.1,7.5,1.7c5.5-2.6,11.2-4.9,16.8-7.2c2.9-1.2,5.9-3.3,9.3-1c0.9,0.8,1.4,1.8,1.8,2.9
			c1,2.5,2.7,3.1,5.1,2.2c11.9-4.3,24.1-6.9,36.6-8.5c4.8-0.6,9.6-0.6,14.3-0.2c14.7-1,28.8,1.9,42.8,5.9c2.4,0.7,4.8,1.4,7.1,2.4
			c3.7,1.5,6.5,1.3,7.7-3.1c0.2-0.6,0.8-1.1,1.3-1.5c2.2-1.6,4.3-0.9,6.6-0.1c6.3,2.3,12.5,5.2,18.6,8c3.7,1.7,6.4,2.2,8.6-1.9
			c0.4-0.8,1.4-1.3,2.4-1.6c2.6-0.3,4.8,0.9,7,2.1c11.9,6.6,23.5,13.8,36.2,18.8c4.4,1.7,8.8,3.1,13.6,2.7c4.7-0.4,6.5-2,6.9-6.8
			c0.8-9-1.8-17.5-4.7-25.8c-6-16.9-15.3-32-26.5-46c-1.5-1.9-2.6-3.8-3.2-6.1c1.7-7.2,4.2-13.9,9.9-19.1
			c20.2,20.1,40.5,40.3,60.7,60.4C410.8,236.4,413.8,239.2,416.8,242.1z"/>
		<path style="fill:#FE9900;" d="M273.1,249.2c-2.9,9-2.9,9-11.8,6c-15.7-5.2-31.7-8.2-48.3-8.3c-3-2.4-2.2-5.7-2.3-8.8
			c-0.1-27.6-0.1-55.2-0.1-82.7c0-15.1-0.1-30.2,0.1-45.4c0-2.8-0.4-5.8,2.3-7.8c20-0.1,39.1,4.1,57.5,11.7
			c9.6,3.9,19,8.2,27.5,14.3c3.1,4.1,0.6,8.1-0.3,12.2c-4.9,27.6-11.4,54.9-16.9,82.5c-1.3,6.7-2.9,13.3-4.2,20
			C276,245.4,275.1,247.6,273.1,249.2z"/>
		<path style="fill:#FDBF00;" d="M213,102.3c0,48.2,0,96.4,0,144.7c-18,0.2-35.3,3.6-52,10.1c-3.8,1.5-5.9,0.8-6-3.6
			c-0.1-1.4-0.6-2.8-1-4.2c-2.8-1.6-3.3-4.4-3.9-7.2c-4.4-21.1-8.8-42.2-13.3-63.3c-2.2-10.2-4.3-20.4-6.5-30.7
			c-0.6-2.7-1.5-5.5,0.6-8.1c0-0.3,0.1-0.7,0-1c-2.4-11.6-2.3-11.3,8.2-17c17.6-9.5,36.3-15.8,56-18.6
			C201,102.5,207,101.2,213,102.3z"/>
		<path style="fill:#FE9900;" d="M130.9,140c6.4,30.2,12.7,60.5,19.1,90.7c1.3,6.2,2.6,12.3,3.9,18.5c-9.1,3.7-18.4,7.1-27.3,11.2
			c-3.9,1.8-5.1,0.7-6.4-2.5c-0.5-1.3-0.9-2.8-2.2-3.7c-2.4-0.6-3.4-2.5-4.3-4.5c-7.3-16.4-15.8-32.1-23.7-48.2
			c-1.3-2.7-2.4-5.4-2.2-8.5c-1-6-4.5-10.9-7.1-16.1c-1.4-2.7-1-4.2,1.1-6.2c9.4-9.5,20.4-16.6,32.2-22.5
			C119.6,145.3,125.3,142.7,130.9,140z"/>
		<path style="fill:#E57500;" d="M273.1,249.2c3.8-18.7,7.6-37.5,11.5-56.2c3.4-16.4,6.9-32.8,10.5-49.3c0.3-1.3,0.7-2.5,1.1-3.8
			c2.2-1.9,4.3-0.6,6.4,0.3c7.4,3.2,14.2,7.5,20.3,12.8c7,5.6,15.1,10,21.3,16.7c1,1.1,2,2.2,3,3.3c-0.9,5.3-4.3,9.4-6.2,14.2
			c-0.7,1.6-1.4,3.3-2.1,4.9c0.2,4-1.5,7.3-3.1,10.8c-7.3,15.3-14.7,30.6-22.4,45.7c-1.2,2.4-2.3,4.9-5.3,5.5c-4,7.7-4,7.6-12.3,4.3
			C288.1,255.6,281,251.5,273.1,249.2z"/>
		<path style="fill:#FDBF00;" d="M87.9,193c2.3,2.3,3.3,5.4,4.6,8.2c8.5,17.7,18.4,34.7,25.5,53c-14.7,8.4-29,17.5-45,23.4
			c-5,1.9-10.1,1-15.1,1.6c-7.9-5.4-6.2-13.4-4.6-20.5c5.3-23.8,16.4-44.7,32.5-63C86.6,194.9,87.2,193.9,87.9,193z"/>
		<path style="fill:#B52C77;" d="M322.9,153.1c-7.1-3.6-14.2-7.3-21.4-10.8c-1.7-0.9-3.6-1.5-5.4-2.3c-0.5-4.1,2.3-7.7,1.9-11.8
			C306.8,136,315.1,144.3,322.9,153.1z"/>
		<path style="fill:#FE9900;" d="M308,254.2c9.4-19.1,18.7-38.2,28.1-57.3c0.8-1.6,1.8-3.2,2.7-4.7c4.9,7.4,10.8,14,15.5,21.5
			c9,14.3,15.9,29.5,19.3,46.1c0.8,4.2,0.8,8.7,0.1,12.9c-0.6,3.7-2.9,6.2-7.4,6.5c-8.3,0.6-15.5-2.6-22.7-5.9
			C331.3,267.8,320,260.4,308,254.2z"/>
	</g>
</g>
</svg>
