<?xml version="1.0" encoding="utf-8"?>
<!-- Generator: Adobe Illustrator 22.1.0, SVG Export Plug-In . SVG Version: 6.00 Build 0)  -->
<svg version="1.1" xmlns="http://www.w3.org/2000/svg" xmlns:xlink="http://www.w3.org/1999/xlink" x="0px" y="0px"
	 viewBox="0 0 512 512" style="enable-background:new 0 0 512 512;" xml:space="preserve">
<g id="about">
	<g>
		<path style="fill:#F54D27;" d="M256,8.8C119.7,8.8,8.8,119.7,8.8,256S119.7,503.2,256,503.2S503.2,392.3,503.2,256
			S392.3,8.8,256,8.8z M272.1,402.7c-11.7,2-35.1,6.8-47,7.8c-10,0.8-19.5-4.9-25.3-13.2c-5.8-8.3-7.2-18.8-3.7-28.3l46.7-128.5
			h-48.6c0-26.8,20-46.5,45.7-54c12.3-3.6,35.1-8.5,47-7.8c7.1,0.5,19.5,4.9,25.3,13.2c5.8,8.3,7.2,18.8,3.7,28.3l-46.7,128.5h48.6
			C317.8,375.5,298.5,398.3,272.1,402.7L272.1,402.7z M286.9,163.3c-17.1,0-30.9-13.8-30.9-30.9c0-17.1,13.8-30.9,30.9-30.9
			s30.9,13.8,30.9,30.9C317.8,149.5,304,163.3,286.9,163.3L286.9,163.3z"/>
	</g>
</g>
<g id="docu">
	<g>
		<path style="fill:#F54D27;" d="M256,8.8C119.7,8.8,8.8,119.7,8.8,256S119.7,503.2,256,503.2S503.2,392.3,503.2,256
			S392.3,8.8,256,8.8z"/>
		<g>
			<path style="fill:#FFFFFF;" d="M395.5,359.3V116.7l-9.3,0.8c-37.1,3.1-73.5,11.9-107.9,26.3l-16.3,6.8v241.6l11.9-4.9
				c35.6-14.8,73.2-24,111.6-27.1L395.5,359.3z"/>
			<path style="fill:#FFFFFF;" d="M425.9,152.6h-18.2v212.3c0,3.2-2.4,5.8-5.6,6.1l-15.5,1.3c-4.5,0.4-9,0.8-13.4,1.4
				c-1.4,0.2-2.9,0.4-4.3,0.6c-3,0.4-6,0.8-9,1.3c-1.7,0.3-3.5,0.6-5.2,0.9c-2.7,0.5-5.4,0.9-8,1.5c-1.8,0.4-3.6,0.8-5.5,1.2
				c-2.5,0.5-5.1,1.1-7.6,1.7c-1.9,0.5-3.8,0.9-5.7,1.4c-2.5,0.6-4.9,1.3-7.3,1.9c-1.9,0.5-3.8,1.1-5.7,1.6
				c-2.4,0.7-4.8,1.4-7.2,2.2c-1.9,0.6-3.8,1.2-5.6,1.8c-2.4,0.8-4.8,1.6-7.2,2.5c-1.8,0.7-3.6,1.3-5.5,2c-0.8,0.3-1.7,0.7-2.5,1
				h139V152.6z"/>
			<path style="fill:#FFFFFF;" d="M125.7,117.5l-9.3-0.8v242.6l10.8,0.9c38.4,3.2,76,12.4,111.5,27.3l11.2,4.7V150.6l-16.3-6.8
				C199.3,129.5,162.9,120.6,125.7,117.5z"/>
			<path style="fill:#FFFFFF;" d="M86.1,152.6v242.7h139.1c-0.7-0.3-1.5-0.6-2.2-0.9c-1.7-0.7-3.5-1.3-5.2-1.9
				c-2.5-0.9-4.9-1.8-7.4-2.6c-1.8-0.6-3.6-1.2-5.4-1.8c-2.5-0.8-4.9-1.6-7.4-2.3c-1.8-0.5-3.6-1.1-5.5-1.6c-2.5-0.7-5-1.3-7.5-2
				c-1.8-0.5-3.6-0.9-5.5-1.4c-2.5-0.6-5.1-1.2-7.7-1.7c-1.8-0.4-3.6-0.8-5.5-1.2c-2.6-0.5-5.3-1-8-1.5c-1.7-0.3-3.5-0.6-5.2-0.9
				c-2.9-0.5-5.9-0.9-8.8-1.3c-1.5-0.2-3-0.4-4.4-0.6c-4.4-0.5-8.9-1-13.3-1.4l-16.3-1.4c-3.1-0.3-5.6-2.9-5.6-6.1V152.6H86.1z"/>
		</g>
	</g>
</g>
<g id="down">
	<g>
		<path style="fill:#F54D27;" d="M256,8.8C119.7,8.8,8.8,119.7,8.8,256S119.7,503.2,256,503.2S503.2,392.3,503.2,256
			S392.3,8.8,256,8.8z"/>
		<g>
			<g id="surface1_1_">
				<path style="fill:#FFFFFF;" d="M331.5,169.9h43.1l-65.9-69.2v46.5C308.7,159.8,318.8,169.9,331.5,169.9z"/>
				<path style="fill:#FFFFFF;" d="M294.7,147.2V89.9h-135c-17.5,0-32,14.4-32,31.9v268.4c0,17.5,14.5,31.9,32,31.9h192.6
					c17.5,0,32-14.4,32-31.9V183.9h-52.8C311.1,183.9,294.7,167.5,294.7,147.2z M199.8,261.7c2.8-2.6,7.3-2.5,9.9,0.4l39.3,42.2
					V203.9c0-3.9,3.2-7,7-7c3.9,0,7,3.2,7,7v100.4l39.3-42.2c2.6-2.8,7.1-3,9.9-0.4c2.8,2.6,3,7.1,0.4,9.9L261.1,327
					c-1.3,1.4-3.2,2.2-5.2,2.2c-2,0-3.8-0.8-5.2-2.2l-51.5-55.3C196.8,268.8,196.9,264.4,199.8,261.7z M335.4,368.5c0,3.9-3.2,7-7,7
					H183.7c-3.9,0-7-3.2-7-7c0-3.9,3.2-7,7-7h144.7C332.3,361.5,335.4,364.6,335.4,368.5z"/>
			</g>
		</g>
	</g>
</g>
<g id="comm">
	<g>
		<path style="fill:#F54D27;" d="M256,8.8C119.7,8.8,8.8,119.7,8.8,256S119.7,503.2,256,503.2S503.2,392.3,503.2,256
			S392.3,8.8,256,8.8z"/>
		<g>
			<path style="fill:#FFFFFF;" d="M413.9,307.3c0-39.1-22.4-74-56.1-91c-1,75-61.9,135.8-136.9,136.9c17,33.6,51.9,56.1,91,56.1
				c18.3,0,36.2-4.9,51.9-14.2l49.6,13.7l-13.7-49.6C409,343.5,413.9,325.6,413.9,307.3z"/>
			<path style="fill:#FFFFFF;" d="M339.4,214.3c0-66.4-54-120.4-120.4-120.4s-120.4,54-120.4,120.4c0,21.6,5.8,42.7,16.7,61.2
				l-16.3,58.8l58.8-16.2c18.5,10.9,39.6,16.7,61.2,16.7C285.4,334.7,339.4,280.7,339.4,214.3z M200.5,186.3h-18.5
				c0-20.4,16.6-37,37-37s37,16.6,37,37c0,10.3-4.4,20.3-12,27.3l-15.7,14.4v14.4h-18.5v-22.5l21.7-19.9c3.9-3.5,6-8.4,6-13.6
				c0-10.2-8.3-18.5-18.5-18.5C208.8,167.8,200.5,176.1,200.5,186.3z M209.8,260.8h18.5v18.5h-18.5V260.8z"/>
		</g>
	</g>
</g>
</svg>
