<?xml version="1.0" encoding="utf-8"?>
<!-- Generator: Adobe Illustrator 24.1.0, SVG Export Plug-In . SVG Version: 6.00 Build 0)  -->
<svg version="1.1" id="Capa_1" xmlns="http://www.w3.org/2000/svg" xmlns:xlink="http://www.w3.org/1999/xlink" x="0px" y="0px"
	 viewBox="0 0 66.5 23.7" style="enable-background:new 0 0 66.5 23.7;" xml:space="preserve">
<g>
	<g>
		<path style="fill:#3C3C3B;" d="M-315.8,406.2c0.1,0.1,0.2,0.3,0.3,0.4c1.4,2.3,3.1,4.3,5,6.1c4.5,4,9.8,6.3,15.7,6.7
			c2.1,0.1,4.2,0,6.4-0.4c5.4-1.1,10-3.6,13.8-7.6c3.5-3.7,5.8-8.1,6.9-13.1c0.2-0.8,0.3-1.8,0.3-2.7c0-1.4,0-2.8,0-4.1v-2.1
			c0-0.3,0-0.6,0-0.9c0-0.1,0-0.2,0-0.3c-0.1-0.2-0.1-0.2-0.2-0.2c-0.2,0-0.3,0-0.5,0h-0.2h-41.1c-0.2,0-0.3,0-0.5,0
			c-0.1,0-0.2,0-0.3,0h-0.4l-0.1-0.4c0-0.1-0.1-0.3,0-0.4c0.1-0.3,0.1-0.5,0.2-0.8c1-2.9,2.5-5.4,4.6-7.3c4.2-4.1,9.3-5.8,15.2-5
			c2.7,0.4,5.3,1.4,7.7,3.1c1.9,1.3,3.4,2.9,4.6,4.7c0.2,0.3,0.4,0.4,0.8,0.4c1.9,0,3.8,0,5.7,0h2.2c0.2,0,0.3,0,0.4,0
			s0.1,0,0.2-0.1c0-0.1,0-0.1,0-0.2c0-0.2-0.1-0.3-0.2-0.5c-1.6-3.5-3.6-6.4-6.2-8.7c-4.8-4.5-10.5-6.8-16.8-7.1
			c-2-0.1-3.9,0.1-5.7,0.4c-3.3,0.7-6.5,2-9.3,3.9c-4.5,3-7.9,7.2-10,12.4c-0.8,2.1-1.4,4.2-1.7,6.7c-0.1,1-0.2,2.1-0.2,3.5
			c0,1.3,0.1,2.4,0.2,3.3c0,0.1,0,0.2,0,0.2c0.1,0.2,0.1,0.2,0.3,0.2c0.2,0,0.4,0,0.5,0h0.2h40.9c0.2,0,0.4,0,0.7,0
			c0.1,0,0.2,0,0.3,0.1l0.3,0.1l0.2,0.3c0.1,0.3,0,0.6-0.1,0.8c-0.3,1.1-0.7,2.1-1.1,3c-3.1,6.5-9.4,10.5-16.4,10.6
			c-1.8,0-3.4-0.2-4.9-0.6c-1.1-0.3-2.2-0.9-3.2-1.4c-2.5-1.3-4.2-2.7-5.6-4.4c-0.1-0.1-0.2-0.2-0.4-0.2c-0.4,0-0.8,0-1.2,0h-7.2
			c-0.1,0-0.1,0-0.2,0s-0.1,0-0.2,0s-0.2,0.1-0.2,0.1c0,0.3,0.1,0.6,0.3,0.8C-316,405.8-315.9,406-315.8,406.2z"/>
		<path style="fill:#3C3C3B;" d="M-390.7,387.2c-0.6-2.9-1.6-5.7-3.2-8.3c-4.4-7.6-12.3-12.5-21-13c-2-0.1-4,0-6,0.4
			c-3.9,0.7-7.5,2.3-10.8,4.7c-3.6,2.6-6.4,6.1-8.3,10.2c-1.6,3.4-2.4,7-2.5,10.9c0,0.9,0,1.7,0.1,2.6c0.1,1.1,0.2,2.2,0.4,3.3
			c1.2,5.8,3.9,10.7,8.2,14.6c4.9,4.4,10.7,6.7,17.4,6.8l0,0c1.4,0,2.7-0.1,4.2-0.4c3-0.5,5.9-1.5,8.6-3.1c4.2-2.5,7.6-5.9,10-10.2
			c2.1-3.8,3.3-8.1,3.4-12.6c0-0.9,0-1.8-0.1-2.6C-390.3,389.4-390.5,388.3-390.7,387.2z M-398.3,394c-0.5,6.7-4.5,12.7-10.5,15.5
			c-1.9,0.9-3.8,1.4-5.8,1.6c-0.7,0.1-1.3,0.1-2,0.1c-4.8,0-9-1.8-12.6-5.3c-2.8-2.7-4.5-6.1-5.3-10.1c-0.2-1-0.3-2.1-0.3-3.2
			c0-4.5,1.4-8.5,4.2-12c2.8-3.4,6.4-5.6,10.7-6.4c1.6-0.3,3.2-0.4,4.9-0.2c4,0.4,7.5,1.9,10.4,4.6c3,2.7,4.9,6.1,5.8,10.1
			C-398.3,390.5-398.2,392.3-398.3,394z"/>
		<path style="fill:#3C3C3B;" d="M-228.9,419.4c0.1,0,0.2,0,0.3,0h0.1h8c0.2,0,0.3,0,0.4,0c0.1,0,0.1,0,0.2-0.1
			c0.1-0.1,0.1-0.2,0.1-0.3c1.2-2.8,1.9-5.7,2.1-8.6c0.2-2.8,0-5.4-0.6-7.9c-1.1-4.9-3.5-9.2-7-12.8c-1.1-1.2-2.4-2.2-3.8-3.2
			l-0.1-0.1c-0.2-0.1-0.4-0.3-0.6-0.6v-0.2l0.1-0.2c0-0.1,0-0.2,0.1-0.3c0.1-0.1,0.2-0.3,0.4-0.4c1.5-1.5,2.8-3.3,3.9-5.2
			c1.6-2.8,2.7-5.9,3.2-9.1c0.2-1,0.2-2,0.3-3v-0.6c0-0.2,0-0.4,0-0.6s-0.1-0.3-0.3-0.3c-0.1,0-0.2,0-0.2,0h-7c-0.2,0-0.2,0-0.3,0
			c-0.3,0-0.3,0.1-0.3,0.4c0,0.1,0,0.2,0,0.3c0,0.7,0,1.6-0.2,2.5c-0.3,2.1-1,4.1-1.9,5.9c-1.5,2.8-3.5,5.1-6.1,6.8
			c-0.3,0.2-0.7,0.4-1.3,0.3c-1.1-0.2-2.3-0.3-3.6-0.4c-2.7-0.1-5.2,0.2-7.6,0.8c-0.2,0-0.3,0.1-0.5,0.1l-0.5,0.1l-0.2-0.3
			c-0.2-0.4-0.2-0.7-0.2-0.9v-0.1c0-4.1,0-8.2,0-12.3v-2.6c0-0.1,0-0.3,0-0.4s-0.1-0.2-0.2-0.2c-0.1,0-0.2,0-0.4,0h-0.1h-6.6
			c-0.1,0-0.2,0-0.3,0c-0.2,0-0.3,0.1-0.3,0.3c0,0.2,0,0.3,0,0.5v0.2v51.9c0,0.1,0,0.3,0,0.4s0,0.2,0.2,0.2c0.1,0,0.2,0,0.3,0h6.8
			c0.2,0,0.2,0,0.3,0c0.3,0,0.3-0.1,0.3-0.3c0-0.1,0-0.3,0-0.4v-0.2v-26.3c0-0.4,0.2-0.7,0.5-0.8l0.2-0.1c2.3-0.9,4.7-1.4,7.1-1.4
			c0,0,0,0,0.1,0c1.1,0,2.3,0.1,3.4,0.3c4.3,0.8,7.8,2.9,10.6,6.2c2.5,2.9,3.9,6.4,4.3,10.2c0.1,1.4,0.1,2.9-0.1,4.3
			c-0.4,2.9-1.4,5.5-3,7.9c-0.1,0.1-0.1,0.2-0.2,0.3c0,0.1-0.1,0.2,0,0.2C-229.1,419.3-229,419.4-228.9,419.4z"/>
		<path style="fill:#3C3C3B;" d="M-366,371c-0.2,0-0.4,0-0.6,0h-10.3c-0.7,0-0.7,0-1,0.6c-2.9,4.6-4.6,9.7-5,15.2
			c-0.2,2.7,0,5.4,0.4,8c0.7,3.9,2,7.5,4,10.7c3.2,5.3,7.7,9.3,13.1,11.8c2.9,1.3,6.1,2.1,9.4,2.3c1.1,0.1,2.3,0,3.6-0.1
			c2.1-0.2,4.2-0.6,6.1-1.2c4.6-1.5,8.6-4.1,11.9-7.7c4.8-5.3,7.6-11.7,8.2-19c0.2-2.8,0.1-5.6-0.4-8.3c-0.8-4.1-2.3-8-4.6-11.5
			c-0.3-0.5-0.3-0.5-1-0.5h-3.8h-6.9c-0.2,0-0.4,0-0.6,0c-0.1,0-0.1,0-0.2,0.1c0,0.1,0,0.1,0.1,0.2s0.2,0.2,0.3,0.2
			c1.2,0.9,2.2,1.9,3.1,3c3.4,4.1,5.2,8.9,5.2,14.4c0,1.4-0.1,2.7-0.3,4c-0.9,4.8-3,8.7-6.3,11.8c-4.4,4.2-9.7,6-15.7,5.3
			c-2.1-0.3-4.3-0.9-6.3-2c-3.4-1.8-6.1-4.5-8.1-7.9c-1.9-3.3-2.9-7-3-10.9c0-1.6,0.1-3.2,0.5-4.9c1.1-5.2,3.8-9.5,7.9-12.7l0.1-0.1
			c0.1-0.1,0.2-0.1,0.2-0.2c0,0,0.1-0.1,0-0.2C-365.8,371-365.9,371-366,371z"/>
	</g>
	<rect x="-366.1" y="436.2" style="fill:none;" width="72" height="22.7"/>
	
		<text transform="matrix(1 0 0 1 -366.0533 455.7343)" style="fill:#3C3C3B; font-family:'CoolveticaCondensedRg-Regular'; font-size:29.1061px; letter-spacing:8;">2021</text>
</g>
<g>
	<path style="fill:#FFFFFF;" d="M37,15.5l0.1,0.1c0.4,0.6,0.8,1.2,1.3,1.6c1.2,1.1,2.6,1.7,4.2,1.8c0.6,0,1.1,0,1.7-0.1
		c1.4-0.3,2.7-1,3.7-2c0.9-1,1.5-2.1,1.8-3.5c0-0.2,0.1-0.5,0.1-0.7c0-0.4,0-0.7,0-1.1v-0.5c0-0.1,0-0.2,0-0.2s0,0,0-0.1
		c0,0,0-0.1-0.1-0.1h-0.1l0,0H38.8h-0.1c0,0,0,0-0.1,0h-0.1v-0.1v-0.1c0-0.1,0-0.1,0.1-0.2c0.3-0.8,0.7-1.4,1.2-2
		c1.1-1.1,2.5-1.5,4-1.3c0.7,0.1,1.4,0.4,2,0.8C46.3,8.1,46.7,8.6,47,9c0.1,0.1,0.1,0.1,0.2,0.1c0.5,0,1,0,1.5,0h0.6h0.1l0,0l0,0V9
		c-0.4-0.9-1-1.7-1.6-2.3c-1.3-1.2-2.8-1.8-4.5-1.9c-0.5,0-1,0-1.5,0.1c-0.9,0.2-1.7,0.5-2.5,1c-1.2,0.8-2.1,1.9-2.7,3.3
		c-0.2,0.5-0.4,1.1-0.5,1.8c0,0.3-0.1,0.6-0.1,0.9c0,0.3,0,0.6,0,0.9c0,0,0,0,0,0.1s0,0.1,0.1,0.1h0.1h0.1h10.9c0.1,0,0.1,0,0.2,0
		h0.1h0.1v0.1c0,0.1,0,0.2,0,0.2c-0.1,0.3-0.2,0.6-0.3,0.8c-0.8,1.7-2.5,2.8-4.4,2.8c-0.5,0-0.9-0.1-1.3-0.2
		c-0.3-0.1-0.6-0.2-0.8-0.4c-0.7-0.3-1.1-0.7-1.5-1.2c0,0-0.1-0.1-0.1,0c-0.1,0-0.2,0-0.3,0H37l0,0l0,0c0,0,0,0-0.1,0
		c0,0.1,0,0.2,0.1,0.2C37,15.4,37,15.4,37,15.5z"/>
	<path style="fill:#FFFFFF;" d="M17.1,10.5c-0.2-0.8-0.4-1.5-0.8-2.2c-1.2-2-3.3-3.3-5.6-3.5c-0.5,0-1.1,0-1.6,0.1
		c-1,0.2-2,0.6-2.9,1.3C5.3,6.8,4.5,7.7,4,8.8c-0.4,0.9-0.6,1.9-0.7,2.9c0,0.2,0,0.5,0,0.7c0,0.3,0.1,0.6,0.1,0.9
		c0.3,1.5,1,2.8,2.2,3.9c1.3,1.2,2.9,1.8,4.6,1.8l0,0c0.4,0,0.7,0,1.1-0.1c0.8-0.1,1.6-0.4,2.3-0.8c1.1-0.7,2-1.6,2.7-2.7
		c0.6-1,0.9-2.1,0.9-3.3c0-0.2,0-0.5,0-0.7C17.2,11,17.2,10.7,17.1,10.5z M15.1,12.3c-0.1,1.8-1.2,3.4-2.8,4.1
		c-0.5,0.2-1,0.4-1.5,0.4c-0.2,0-0.4,0-0.5,0c-1.3,0-2.4-0.5-3.3-1.4c-0.7-0.7-1.2-1.6-1.4-2.7c0-0.3-0.1-0.6-0.1-0.9
		c0-1.2,0.4-2.3,1.1-3.2C7.3,7.8,8.2,7.2,9.4,7c0.4-0.1,0.9-0.1,1.3-0.1c1.1,0.1,2,0.5,2.8,1.2s1.3,1.6,1.5,2.7
		C15.1,11.3,15.1,11.8,15.1,12.3z"/>
	<path style="fill:#FFFFFF;" d="M60.1,19C60.1,19,60.2,19,60.1,19L60.1,19h2.2h0.1c0,0,0,0,0.1,0c0,0,0,0,0-0.1
		c0.3-0.7,0.5-1.5,0.6-2.3c0.1-0.7,0-1.4-0.2-2.1c-0.3-1.3-0.9-2.4-1.9-3.4c-0.3-0.3-0.6-0.6-1-0.9l0,0c0,0-0.1-0.1-0.1-0.2l0,0l0,0
		c0,0,0,0,0-0.1L60,9.8c0.4-0.4,0.7-0.9,1-1.4c0.4-0.8,0.7-1.6,0.8-2.4C62,5.7,62,5.4,62,5.2V5c0-0.1,0-0.1,0-0.2s0-0.1-0.1-0.1
		c0,0,0,0-0.1,0h-1.9h-0.1c-0.1,0-0.1,0-0.1,0.1v0.1c0,0.2,0,0.4,0,0.7c-0.1,0.6-0.3,1.1-0.5,1.6c-0.4,0.7-0.9,1.3-1.6,1.8
		c-0.1,0-0.2,0.1-0.3,0.1C57,9,56.7,9,56.3,9c-0.7,0-1.4,0.1-2,0.2h-0.1h-0.1V9.1C54,9,54,8.9,54.1,8.8l0,0c0-1.1,0-2.2,0-3.3V4.8
		V4.7l0,0H54l0,0h-1.8h-0.1c-0.1,0-0.1,0-0.1,0.1v0.1V5v13.8v0.1c0,0,0,0.1,0.1,0.1c0,0,0,0,0.1,0H54h0.1c0.1,0,0.1,0,0.1-0.1v-0.1
		l0,0v-7c0-0.1,0.1-0.2,0.1-0.2h0.1c0.6-0.3,1.2-0.4,1.9-0.4l0,0c0.3,0,0.6,0,0.9,0.1c1.1,0.2,2.1,0.8,2.8,1.7
		c0.7,0.8,1,1.7,1.1,2.7c0,0.4,0,0.8,0,1.1c-0.1,0.8-0.4,1.5-0.8,2.1C60.1,18.9,60.1,18.9,60.1,19C60,18.9,60,19,60.1,19L60.1,19z"
		/>
	<path style="fill:#FFFFFF;" d="M23.7,6.1c-0.1,0-0.1,0-0.2,0h-2.7c-0.2,0-0.2,0-0.3,0.2c-0.8,1.2-1.2,2.6-1.3,4
		c0,0.7,0,1.4,0.1,2.1c0.2,1,0.5,2,1.1,2.8c0.9,1.4,2,2.5,3.5,3.1c0.8,0.3,1.6,0.6,2.5,0.6c0.3,0,0.6,0,1,0c0.6,0,1.1-0.2,1.6-0.3
		c1.2-0.4,2.3-1.1,3.2-2.1c1.3-1.4,2-3.1,2.2-5.1c0.1-0.7,0-1.5-0.1-2.2c-0.2-1.1-0.6-2.1-1.2-3.1C33,6,33,6,32.8,6h-1H30
		c-0.1,0-0.1,0-0.2,0l0,0c0,0,0,0,0,0.1c0,0,0,0,0.1,0.1c0.3,0.2,0.6,0.5,0.8,0.8c0.9,1.1,1.4,2.4,1.4,3.8c0,0.4,0,0.7-0.1,1.1
		c-0.2,1.3-0.8,2.3-1.7,3.1c-1.2,1.1-2.6,1.6-4.2,1.4c-0.6-0.1-1.1-0.2-1.7-0.5c-0.9-0.5-1.6-1.2-2.2-2.1C21.7,13,21.4,12,21.4,11
		c0-0.4,0-0.9,0.1-1.3c0.3-1.4,1-2.5,2.1-3.4l0,0C23.7,6.3,23.7,6.2,23.7,6.1C23.7,6.2,23.7,6.2,23.7,6.1L23.7,6.1z"/>
</g>
</svg>
